<svg width="46" height="42" viewBox="0 0 46 42" fill="none" xmlns="http://www.w3.org/2000/svg">
<path d="M26.6992 31.9496C26.6997 33.9998 27.3813 35.9917 28.637 37.6124C29.8926 39.2331 31.6511 40.3907 33.6362 40.9034C35.6212 41.4161 37.7203 41.2547 39.6037 40.4447C41.4871 39.6347 43.0481 38.222 44.0413 36.4284C45.0345 34.6349 45.4037 32.5622 45.0909 30.536C44.7781 28.5098 43.8011 26.645 42.3132 25.2344C40.8254 23.8239 38.9111 22.9476 36.8711 22.7433C34.8311 22.539 32.781 23.0182 31.043 24.1056C31.6389 20.5242 32.8294 17.0676 34.5654 13.8788C36.9667 9.51279 40.0266 6.43809 42.809 3.65939C43.1564 3.31201 43.3515 2.84086 43.3515 2.34959C43.3515 1.85832 43.1564 1.38717 42.809 1.03979C42.4616 0.69241 41.9905 0.497254 41.4992 0.497254C41.0079 0.497254 40.5368 0.69241 40.1894 1.03979L40.1487 1.08419C37.3848 3.84809 33.9919 7.24099 31.3205 12.0954C28.6232 17.009 26.6992 23.3286 26.6992 31.9496ZM5.14301 24.1056C6.88105 23.0182 8.93111 22.539 10.9711 22.7433C13.0111 22.9476 14.9254 23.8239 16.4132 25.2344C17.9011 26.645 18.8781 28.5098 19.1909 30.536C19.5037 32.5622 19.1345 34.6349 18.1413 36.4284C17.1481 38.222 15.5871 39.6347 13.7037 40.4447C11.8203 41.2547 9.72121 41.4161 7.73616 40.9034C5.7511 40.3907 3.99262 39.2331 2.73698 37.6124C1.48135 35.9917 0.799728 33.9998 0.799209 31.9496C0.799208 23.3286 2.72321 17.009 5.42421 12.0954C8.0919 7.24099 11.4848 3.84439 14.245 1.08419L14.2894 1.03979C14.6368 0.692412 15.1079 0.497256 15.5992 0.497256C16.0905 0.497256 16.5616 0.692412 16.909 1.03979C17.2564 1.38717 17.4515 1.85832 17.4515 2.34959C17.4515 2.84086 17.2564 3.31201 16.909 3.65939C14.1266 6.43809 11.0667 9.5091 8.66541 13.8788C6.92891 17.0686 5.73835 20.5265 5.14301 24.1093L5.14301 24.1056Z" fill="#018343"/>
</svg>
