<svg width="46" height="42" viewBox="0 0 46 42" fill="none" xmlns="http://www.w3.org/2000/svg">
<path d="M19.3008 10.0504C19.3003 8.00021 18.6187 6.00829 17.363 4.38759C16.1074 2.7669 14.3489 1.60927 12.3638 1.0966C10.3788 0.583936 8.27966 0.745276 6.39627 1.55527C4.51287 2.36527 2.95194 3.77802 1.95873 5.57157C0.96551 7.36511 0.596294 9.4378 0.909085 11.464C1.22188 13.4902 2.19895 15.355 3.68679 16.7656C5.17464 18.1761 7.08893 19.0524 9.12891 19.2567C11.1689 19.461 13.219 18.9818 14.957 17.8944C14.3611 21.4758 13.1706 24.9324 11.4346 28.1212C9.0333 32.4872 5.9734 35.5619 3.191 38.3406C2.84362 38.688 2.64846 39.1591 2.64846 39.6504C2.64846 40.1417 2.84362 40.6128 3.191 40.9602C3.53838 41.3076 4.00953 41.5027 4.5008 41.5027C4.99207 41.5027 5.46322 41.3076 5.8106 40.9602L5.8513 40.9158C8.6152 38.1519 12.0081 34.759 14.6795 29.9046C17.3768 24.991 19.3008 18.6714 19.3008 10.0504ZM40.857 17.8944C39.119 18.9818 37.0689 19.461 35.0289 19.2567C32.9889 19.0524 31.0746 18.1761 29.5868 16.7656C28.0989 15.355 27.1219 13.4902 26.8091 11.464C26.4963 9.43779 26.8655 7.3651 27.8587 5.57156C28.8519 3.77802 30.4129 2.36527 32.2963 1.55527C34.1797 0.745271 36.2788 0.583931 38.2638 1.0966C40.2489 1.60927 42.0074 2.76689 43.263 4.38759C44.5187 6.00829 45.2003 8.00021 45.2008 10.0504C45.2008 18.6714 43.2768 24.991 40.5758 29.9046C37.9081 34.759 34.5152 38.1556 31.755 40.9158L31.7106 40.9602C31.3632 41.3076 30.8921 41.5027 30.4008 41.5027C29.9095 41.5027 29.4384 41.3076 29.091 40.9602C28.7436 40.6128 28.5485 40.1417 28.5485 39.6504C28.5485 39.1591 28.7436 38.688 29.091 38.3406C31.8734 35.5619 34.9333 32.4909 37.3346 28.1212C39.0711 24.9314 40.2617 21.4735 40.857 17.8907L40.857 17.8944Z" fill="#018343"/>
</svg>
