<svg width="20" height="21" viewBox="0 0 20 21" fill="none" xmlns="http://www.w3.org/2000/svg">
<g clip-path="url(#clip0_5_78)">
<mask id="mask0_5_78" style="mask-type:alpha" maskUnits="userSpaceOnUse" x="0" y="0" width="20" height="21">
<path d="M4.34783 0C3.87228 0 3.47826 0.396484 3.47826 0.875V1.75H0.869565C0.692935 1.75 0.499321 1.77734 0.314198 1.90723C0.129076 2.03711 0 2.29517 0 2.53442V20.1438C0 20.3625 0.0747283 20.5864 0.230978 20.7488C0.38553 20.9128 0.613111 21 0.8339 21H19.1661C19.3869 21 19.6145 20.9128 19.769 20.7488C19.9253 20.5864 20 20.3625 20 20.1438V2.53442C20 2.29517 19.8709 2.03711 19.6858 1.90723C19.5007 1.77734 19.3071 1.75 19.1304 1.75H16.5217V0.875C16.5217 0.396484 16.1277 0 15.6522 0H14.7826C14.3071 0 13.913 0.396484 13.913 0.875V1.75H6.08696V0.875C6.08696 0.396484 5.69293 0 5.21739 0H4.34783ZM4.34783 0.875H5.21739V3.5H4.34783V0.875ZM14.7826 0.875H15.6522V3.5H14.7826V0.875ZM0.869565 2.625H3.47826V3.5C3.47826 3.97852 3.87228 4.375 4.34783 4.375H5.21739C5.69293 4.375 6.08696 3.97852 6.08696 3.5V2.625H13.913V3.5C13.913 3.97852 14.3071 4.375 14.7826 4.375H15.6522C16.1277 4.375 16.5217 3.97852 16.5217 3.5V2.625H19.1304V5.6875H0.869565V2.625ZM0.869565 6.5625H19.1304V20.125H0.869565V6.5625Z" fill="white"/>
</mask>
<g mask="url(#mask0_5_78)">
<path d="M4.34783 0C3.87228 0 3.47826 0.396484 3.47826 0.875V1.75H0.869565C0.692935 1.75 0.499321 1.77734 0.314198 1.90723C0.129076 2.03711 0 2.29517 0 2.53442V20.1438C0 20.3625 0.0747283 20.5864 0.230978 20.7488C0.38553 20.9128 0.613111 21 0.8339 21H19.1661C19.3869 21 19.6145 20.9128 19.769 20.7488C19.9253 20.5864 20 20.3625 20 20.1438V2.53442C20 2.29517 19.8709 2.03711 19.6858 1.90723C19.5007 1.77734 19.3071 1.75 19.1304 1.75H16.5217V0.875C16.5217 0.396484 16.1277 0 15.6522 0H14.7826C14.3071 0 13.913 0.396484 13.913 0.875V1.75H6.08696V0.875C6.08696 0.396484 5.69293 0 5.21739 0H4.34783ZM4.34783 0.875H5.21739V3.5H4.34783V0.875ZM14.7826 0.875H15.6522V3.5H14.7826V0.875ZM0.869565 2.625H3.47826V3.5C3.47826 3.97852 3.87228 4.375 4.34783 4.375H5.21739C5.69293 4.375 6.08696 3.97852 6.08696 3.5V2.625H13.913V3.5C13.913 3.97852 14.3071 4.375 14.7826 4.375H15.6522C16.1277 4.375 16.5217 3.97852 16.5217 3.5V2.625H19.1304V5.6875H0.869565V2.625ZM0.869565 6.5625H19.1304V20.125H0.869565V6.5625Z" fill="black"/>
<path d="M3.47826 1.75V2.75H4.47826V1.75H3.47826ZM0.314198 1.90723L-0.260145 1.08861H-0.260146L0.314198 1.90723ZM0.230978 20.7488L0.95891 20.063L0.951498 20.0553L0.230978 20.7488ZM19.769 20.7488L19.0485 20.0553L19.0411 20.0631L19.769 20.7488ZM16.5217 1.75H15.5217V2.75H16.5217V1.75ZM13.913 1.75V2.75H14.913V1.75H13.913ZM6.08696 1.75H5.08696V2.75H6.08696V1.75ZM4.34783 0.875V-0.125H3.34783V0.875H4.34783ZM5.21739 0.875H6.21739V-0.125H5.21739V0.875ZM5.21739 3.5V4.5H6.21739V3.5H5.21739ZM4.34783 3.5H3.34783V4.5H4.34783V3.5ZM14.7826 0.875V-0.125H13.7826V0.875H14.7826ZM15.6522 0.875H16.6522V-0.125H15.6522V0.875ZM15.6522 3.5V4.5H16.6522V3.5H15.6522ZM14.7826 3.5H13.7826V4.5H14.7826V3.5ZM0.869565 2.625V1.625H-0.130435V2.625H0.869565ZM3.47826 2.625H4.47826V1.625H3.47826V2.625ZM6.08696 2.625V1.625H5.08696V2.625H6.08696ZM13.913 2.625H14.913V1.625H13.913V2.625ZM16.5217 2.625V1.625H15.5217V2.625H16.5217ZM19.1304 2.625H20.1304V1.625H19.1304V2.625ZM19.1304 5.6875V6.6875H20.1304V5.6875H19.1304ZM0.869565 5.6875H-0.130435V6.6875H0.869565V5.6875ZM0.869565 6.5625V5.5625H-0.130435V6.5625H0.869565ZM19.1304 6.5625H20.1304V5.5625H19.1304V6.5625ZM19.1304 20.125V21.125H20.1304V20.125H19.1304ZM0.869565 20.125H-0.130435V21.125H0.869565V20.125ZM4.34783 -1C3.31413 -1 2.47826 -0.149917 2.47826 0.875H4.47826C4.47826 0.914852 4.46144 0.945433 4.44402 0.962957C4.42655 0.98054 4.39329 1 4.34783 1V-1ZM2.47826 0.875V1.75H4.47826V0.875H2.47826ZM3.47826 0.75H0.869565V2.75H3.47826V0.75ZM0.869565 0.75C0.586367 0.75 0.159281 0.794341 -0.260145 1.08861L0.888542 2.72584C0.880694 2.73135 0.870838 2.73703 0.859791 2.74194C0.848925 2.74676 0.839922 2.74948 0.834337 2.75086C0.829049 2.75216 0.828315 2.75189 0.833909 2.75133C0.839759 2.75074 0.850884 2.75 0.869565 2.75V0.75ZM-0.260146 1.08861C-0.730584 1.41867 -1 1.99251 -1 2.53442H1C1 2.58792 0.987658 2.61593 0.981844 2.62755C0.977653 2.63592 0.970599 2.64795 0.958199 2.66298C0.946039 2.67771 0.924073 2.70091 0.888543 2.72584L-0.260146 1.08861ZM-1 2.53442V20.1438H1V2.53442H-1ZM-1 20.1438C-1 20.5768 -0.853682 21.0638 -0.489542 21.4422L0.951498 20.0553C0.977955 20.0828 0.990129 20.1079 0.995114 20.1214C0.999792 20.1341 1 20.1411 1 20.1438H-1ZM-0.496912 21.4345C-0.133266 21.8205 0.368346 22 0.8339 22V20C0.852862 20 0.868913 20.0033 0.884922 20.0098C0.901362 20.0165 0.929026 20.0314 0.958868 20.0631L-0.496912 21.4345ZM0.8339 22H19.1661V20H0.8339V22ZM19.1661 22C19.6317 22 20.1333 21.8205 20.4969 21.4345L19.0411 20.0631C19.071 20.0314 19.0986 20.0165 19.1151 20.0098C19.1311 20.0033 19.1471 20 19.1661 20V22ZM20.4895 21.4422C20.8537 21.0638 21 20.5768 21 20.1438H19C19 20.1411 19.0002 20.1341 19.0049 20.1214C19.0099 20.1079 19.022 20.0828 19.0485 20.0553L20.4895 21.4422ZM21 20.1438V2.53442H19V20.1438H21ZM21 2.53442C21 1.99251 20.7306 1.41867 20.2601 1.08861L19.1115 2.72584C19.0759 2.70091 19.054 2.67771 19.0418 2.66298C19.0294 2.64795 19.0223 2.63592 19.0182 2.62755C19.0123 2.61593 19 2.58792 19 2.53442H21ZM20.2601 1.08861C19.8407 0.79434 19.4136 0.75 19.1304 0.75V2.75C19.1491 2.75 19.1602 2.75074 19.1661 2.75133C19.1717 2.75189 19.1709 2.75216 19.1657 2.75086C19.1601 2.74948 19.1511 2.74676 19.1402 2.74194C19.1292 2.73703 19.1193 2.73135 19.1115 2.72584L20.2601 1.08861ZM19.1304 0.75H16.5217V2.75H19.1304V0.75ZM17.5217 1.75V0.875H15.5217V1.75H17.5217ZM17.5217 0.875C17.5217 -0.149917 16.6859 -1 15.6522 -1V1C15.6067 1 15.5735 0.98054 15.556 0.962957C15.5386 0.945433 15.5217 0.914852 15.5217 0.875H17.5217ZM15.6522 -1H14.7826V1H15.6522V-1ZM14.7826 -1C13.7489 -1 12.913 -0.149917 12.913 0.875H14.913C14.913 0.914852 14.8962 0.945433 14.8788 0.962957C14.8613 0.98054 14.8281 1 14.7826 1V-1ZM12.913 0.875V1.75H14.913V0.875H12.913ZM13.913 0.75H6.08696V2.75H13.913V0.75ZM7.08696 1.75V0.875H5.08696V1.75H7.08696ZM7.08696 0.875C7.08696 -0.149917 6.25108 -1 5.21739 -1V1C5.17192 1 5.13867 0.98054 5.1212 0.962957C5.10378 0.945433 5.08696 0.914852 5.08696 0.875H7.08696ZM5.21739 -1H4.34783V1H5.21739V-1ZM4.34783 1.875H5.21739V-0.125H4.34783V1.875ZM4.21739 0.875V3.5H6.21739V0.875H4.21739ZM5.21739 2.5H4.34783V4.5H5.21739V2.5ZM5.34783 3.5V0.875H3.34783V3.5H5.34783ZM14.7826 1.875H15.6522V-0.125H14.7826V1.875ZM14.6522 0.875V3.5H16.6522V0.875H14.6522ZM15.6522 2.5H14.7826V4.5H15.6522V2.5ZM15.7826 3.5V0.875H13.7826V3.5H15.7826ZM0.869565 3.625H3.47826V1.625H0.869565V3.625ZM2.47826 2.625V3.5H4.47826V2.625H2.47826ZM2.47826 3.5C2.47826 4.52492 3.31413 5.375 4.34783 5.375V3.375C4.39329 3.375 4.42655 3.39446 4.44402 3.41204C4.46144 3.42957 4.47826 3.46015 4.47826 3.5H2.47826ZM4.34783 5.375H5.21739V3.375H4.34783V5.375ZM5.21739 5.375C6.25108 5.375 7.08696 4.52492 7.08696 3.5H5.08696C5.08696 3.46015 5.10378 3.42957 5.1212 3.41204C5.13867 3.39446 5.17192 3.375 5.21739 3.375V5.375ZM7.08696 3.5V2.625H5.08696V3.5H7.08696ZM6.08696 3.625H13.913V1.625H6.08696V3.625ZM12.913 2.625V3.5H14.913V2.625H12.913ZM12.913 3.5C12.913 4.52492 13.7489 5.375 14.7826 5.375V3.375C14.8281 3.375 14.8613 3.39446 14.8788 3.41204C14.8962 3.42957 14.913 3.46015 14.913 3.5H12.913ZM14.7826 5.375H15.6522V3.375H14.7826V5.375ZM15.6522 5.375C16.6859 5.375 17.5217 4.52492 17.5217 3.5H15.5217C15.5217 3.46015 15.5386 3.42957 15.556 3.41204C15.5735 3.39446 15.6067 3.375 15.6522 3.375V5.375ZM17.5217 3.5V2.625H15.5217V3.5H17.5217ZM16.5217 3.625H19.1304V1.625H16.5217V3.625ZM18.1304 2.625V5.6875H20.1304V2.625H18.1304ZM19.1304 4.6875H0.869565V6.6875H19.1304V4.6875ZM1.86957 5.6875V2.625H-0.130435V5.6875H1.86957ZM0.869565 7.5625H19.1304V5.5625H0.869565V7.5625ZM18.1304 6.5625V20.125H20.1304V6.5625H18.1304ZM19.1304 19.125H0.869565V21.125H19.1304V19.125ZM1.86957 20.125V6.5625H-0.130435V20.125H1.86957Z" fill="#24AC86"/>
</g>
</g>
<defs>
<clipPath id="clip0_5_78">
<rect width="20" height="21" fill="white"/>
</clipPath>
</defs>
</svg>
