<svg width="22" height="17" viewBox="0 0 22 17" fill="none" xmlns="http://www.w3.org/2000/svg">
<path fill-rule="evenodd" clip-rule="evenodd" d="M11.001 0C11.2094 0 11.4092 0.0827805 11.5566 0.230131C11.7039 0.377481 11.7867 0.57733 11.7867 0.785714V9.889L15.159 6.51514C15.3065 6.36761 15.5066 6.28472 15.7153 6.28472C15.9239 6.28472 16.124 6.36761 16.2716 6.51514C16.4191 6.66268 16.502 6.86278 16.502 7.07143C16.502 7.28008 16.4191 7.48018 16.2716 7.62771L11.5573 12.342C11.4843 12.4152 11.3976 12.4732 11.3021 12.5128C11.2067 12.5524 11.1043 12.5728 11.001 12.5728C10.8976 12.5728 10.7953 12.5524 10.6999 12.5128C10.6044 12.4732 10.5177 12.4152 10.4447 12.342L5.73042 7.62771C5.58289 7.48018 5.5 7.28008 5.5 7.07143C5.5 6.86278 5.58289 6.66268 5.73042 6.51514C5.87796 6.36761 6.07806 6.28472 6.28671 6.28472C6.49535 6.28472 6.69546 6.36761 6.84299 6.51514L10.2153 9.889V0.785714C10.2153 0.57733 10.2981 0.377481 10.4454 0.230131C10.5928 0.0827805 10.7926 0 11.001 0Z" fill="#2F8158"/>
<path d="M0.23013 14.8365C0.0827803 14.9838 0 15.1837 0 15.392C0 15.6004 0.0827803 15.8003 0.23013 15.9476C0.37748 16.095 0.57733 16.1778 0.785714 16.1778H21.2143C21.4227 16.1778 21.6225 16.095 21.7699 15.9476C21.9172 15.8003 22 15.6004 22 15.392C22 15.1837 21.9172 14.9838 21.7699 14.8365C21.6225 14.6891 21.4227 14.6063 21.2143 14.6063H0.785714C0.57733 14.6063 0.37748 14.6891 0.23013 14.8365Z" fill="#2F8158"/>
</svg>
