<svg width="26" height="17" viewBox="0 0 26 17" fill="none" xmlns="http://www.w3.org/2000/svg">
<g clip-path="url(#clip0_5_87)">
<path d="M12.8226 16.3533C8.54067 16.3533 4.44567 13.7948 0.64629 8.74581C0.513243 8.57003 0.508165 8.33273 0.634103 8.15206C0.841291 7.85226 5.79147 0.810301 12.9282 0.648051C17.3014 0.536724 21.4778 3.06701 25.3503 8.13156V8.13253C25.4843 8.30734 25.4904 8.54366 25.3675 8.72628C25.1603 9.03098 20.2081 16.1901 13.0654 16.3513C12.9841 16.3523 12.9029 16.3533 12.8226 16.3533ZM1.75337 8.43631C5.33357 13.0838 9.13685 15.3973 13.0361 15.3093C18.8232 15.1814 23.2421 9.78306 24.2455 8.44981C20.6645 3.87656 16.8589 1.61181 12.9589 1.69006C7.17593 1.81799 2.76087 7.11981 1.75337 8.43606V8.43631Z" fill="#24AC86"/>
<path d="M13.0002 12.781C11.819 12.781 10.6876 12.3308 9.85289 11.5271C9.01704 10.7243 8.54883 9.63648 8.54883 8.50085C8.54883 7.36523 9.01704 6.27723 9.85289 5.4746C10.6877 4.6709 11.8191 4.2207 13.0002 4.2207C14.1812 4.2207 15.3128 4.6709 16.1475 5.4746C16.9833 6.27733 17.4515 7.36523 17.4515 8.50085C17.4505 9.63563 16.9813 10.7235 16.1465 11.5263C15.3116 12.329 14.1802 12.7802 13 12.7812L13.0002 12.781ZM13.0002 5.2615C11.6382 5.2615 10.4093 6.05055 9.88824 7.2615C9.36622 8.47145 9.65465 9.865 10.6185 10.7907C11.5813 11.7175 13.0306 11.9948 14.2889 11.4929C15.5483 10.9919 16.3689 9.81028 16.3689 8.50065C16.3669 6.71258 14.8597 5.2634 13.0001 5.2614L13.0002 5.2615Z" fill="#24AC86"/>
</g>
<defs>
<clipPath id="clip0_5_87">
<rect width="26" height="17" fill="white"/>
</clipPath>
</defs>
</svg>
