<svg width="13" height="13" viewBox="0 0 13 13" fill="none" xmlns="http://www.w3.org/2000/svg">
<path d="M6.5 0.875C3.39875 0.875 0.875 3.39875 0.875 6.5C0.875 9.60125 3.39875 12.125 6.5 12.125C9.60125 12.125 12.125 9.60125 12.125 6.5C12.125 3.39875 9.60125 0.875 6.5 0.875ZM6.5 1.8125C9.09453 1.8125 11.1875 3.90547 11.1875 6.5C11.1886 7.62217 10.7862 8.70734 10.0538 9.55747C9.32126 10.4076 8.30751 10.966 7.1975 11.1308V7.86688H8.5325L8.74203 6.51078H7.1975V5.77016C7.1975 5.20766 7.38266 4.7075 7.90906 4.7075H8.75516V3.52438C8.60656 3.50422 8.29203 3.46062 7.69766 3.46062C6.45641 3.46062 5.72891 4.11594 5.72891 5.60938V6.51078H4.45297V7.86688H5.72891V11.1191C4.63426 10.9389 3.63933 10.3754 2.92189 9.52923C2.20444 8.68306 1.81123 7.60938 1.8125 6.5C1.8125 3.90547 3.90547 1.8125 6.5 1.8125Z" fill="#184F3B"/>
</svg>
