<svg width="40" height="40" viewBox="0 0 40 40" fill="none" xmlns="http://www.w3.org/2000/svg">
<g clip-path="url(#clip0_5_109)">
<path d="M11.4896 40H7.48964C7.24699 40.0024 7.01175 39.9165 6.82776 39.7582C6.64378 39.6 6.5236 39.3803 6.48964 39.14L5.48964 32.14C5.46992 32.0085 5.47661 31.8744 5.50934 31.7455C5.54207 31.6166 5.60018 31.4956 5.68026 31.3894C5.76034 31.2833 5.86079 31.1942 5.97573 31.1273C6.09066 31.0604 6.21778 31.0172 6.34964 31C6.6122 30.9629 6.87874 31.0316 7.09064 31.191C7.30255 31.3504 7.44247 31.5875 7.47964 31.85L8.35964 38H10.6296L11.4996 31.86C11.5368 31.5948 11.6777 31.3552 11.8915 31.1939C12.1053 31.0326 12.3744 30.9629 12.6396 31C12.9049 31.0371 13.1445 31.1781 13.3057 31.3919C13.467 31.6057 13.5368 31.8748 13.4996 32.14L12.4996 39.14C12.4655 39.382 12.3439 39.6031 12.1578 39.7616C11.9717 39.92 11.734 40.0049 11.4896 40Z" fill="#24AC86"/>
<path d="M15.4891 32.9995H3.48912C3.34636 32.998 3.20557 32.9661 3.07621 32.9057C2.94684 32.8453 2.8319 32.758 2.73912 32.6495C2.64192 32.5427 2.57062 32.4151 2.53074 32.2763C2.49085 32.1376 2.48345 31.9915 2.50912 31.8495L4.50912 18.8495C4.52881 18.7181 4.57418 18.592 4.64264 18.4782C4.71109 18.3644 4.80129 18.2652 4.90807 18.1863C5.01486 18.1074 5.13615 18.0502 5.26501 18.0182C5.39388 17.9861 5.52779 17.9798 5.65912 17.9995C5.79044 18.0192 5.91659 18.0645 6.03038 18.133C6.14417 18.2014 6.24336 18.2916 6.32229 18.3984C6.40122 18.5052 6.45834 18.6265 6.4904 18.7554C6.52245 18.8842 6.52881 19.0181 6.50912 19.1495L4.65912 30.9995H14.3291L12.5091 19.1495C12.4894 19.0181 12.4958 18.8842 12.5278 18.7554C12.5599 18.6265 12.617 18.5052 12.6959 18.3984C12.7749 18.2916 12.8741 18.2014 12.9879 18.133C13.1016 18.0645 13.2278 18.0192 13.3591 17.9995C13.4904 17.9798 13.6244 17.9861 13.7532 18.0182C13.8821 18.0502 14.0034 18.1074 14.1102 18.1863C14.2169 18.2652 14.3071 18.3644 14.3756 18.4782C14.444 18.592 14.4894 18.7181 14.5091 18.8495L16.5091 31.8495C16.5305 31.9915 16.521 32.1365 16.4813 32.2745C16.4416 32.4126 16.3727 32.5405 16.2791 32.6495C16.182 32.7632 16.0606 32.8536 15.9239 32.9142C15.7871 32.9748 15.6386 33.0039 15.4891 32.9995V32.9995Z" fill="#24AC86"/>
<path d="M28.3205 27.7694L26.3205 24.4894L26.2605 24.3894C25.9931 23.9052 25.5854 23.5132 25.0909 23.2651C24.5965 23.017 24.0386 22.9244 23.4905 22.9994H20.7405C19.2005 22.2094 17.7405 21.2594 17.7405 21.2494C17.1071 20.8108 16.3267 20.6384 15.5674 20.7693C14.8081 20.9002 14.1306 21.324 13.6805 21.9494C13.3833 22.4114 13.2269 22.95 13.2305 23.4994C13.2358 23.9785 13.346 24.4506 13.5533 24.8825C13.7607 25.3144 14.0601 25.6956 14.4305 25.9994L17.4905 28.4494V38.9994C17.4905 39.2646 17.5959 39.519 17.7834 39.7065C17.971 39.8941 18.2253 39.9994 18.4905 39.9994H24.4905C24.7557 39.9994 25.0101 39.8941 25.1976 39.7065C25.3852 39.519 25.4905 39.2646 25.4905 38.9994V32.2494C25.6602 32.2642 25.8309 32.2642 26.0005 32.2494C26.5523 32.2495 27.0917 32.0859 27.5505 31.7794C28.1613 31.3316 28.5802 30.6694 28.723 29.9256C28.8658 29.1818 28.7221 28.4116 28.3205 27.7694V27.7694ZM26.4405 30.1694C26.2694 30.29 26.0582 30.3397 25.8513 30.308C25.6444 30.2763 25.4577 30.1657 25.3305 29.9994L24.3305 28.4894C24.182 28.268 23.9516 28.1146 23.69 28.063C23.4284 28.0114 23.157 28.0659 22.9355 28.2144C22.7141 28.3629 22.5607 28.5933 22.5091 28.855C22.4575 29.1166 22.512 29.388 22.6605 29.6094L23.5205 30.8994C23.5205 30.8994 23.5205 30.9994 23.5205 31.0494V38.0494H19.5205V27.9294C19.5255 27.8963 19.5255 27.8626 19.5205 27.8294C19.4793 27.594 19.3551 27.3812 19.1705 27.2294L15.7305 24.4794C15.5817 24.3584 15.4615 24.2061 15.3785 24.0332C15.2955 23.8603 15.2518 23.6712 15.2505 23.4794C15.2474 23.3197 15.2927 23.1628 15.3805 23.0294C15.5469 22.857 15.7697 22.75 16.0082 22.728C16.2468 22.706 16.4854 22.7703 16.6805 22.9094C17.7841 23.6366 18.9257 24.3042 20.1005 24.9094V24.9094C20.1576 24.9352 20.2183 24.9521 20.2805 24.9594C20.3502 24.9689 20.4209 24.9689 20.4905 24.9594H23.4905C24.2205 24.9594 24.2305 24.9594 24.6705 25.5194L26.6105 28.7594C26.7639 28.973 26.8316 29.2364 26.8001 29.4975C26.7686 29.7586 26.6403 29.9984 26.4405 30.1694V30.1694Z" fill="#24AC86"/>
<path d="M9.49024 10C8.69911 10 7.92575 9.76541 7.26796 9.32588C6.61016 8.88635 6.09747 8.26164 5.79472 7.53074C5.49197 6.79983 5.41275 5.99556 5.5671 5.21964C5.72144 4.44372 6.1024 3.73098 6.66181 3.17157C7.22122 2.61216 7.93395 2.2312 8.70987 2.07686C9.4858 1.92252 10.2901 2.00173 11.021 2.30448C11.7519 2.60723 12.3766 3.11992 12.8161 3.77772C13.2556 4.43552 13.4902 5.20888 13.4902 6C13.4902 7.06087 13.0688 8.07828 12.3187 8.82843C11.5685 9.57857 10.5511 10 9.49024 10ZM9.49024 4C9.09467 4 8.70799 4.1173 8.3791 4.33706C8.0502 4.55683 7.79385 4.86918 7.64248 5.23463C7.4911 5.60009 7.4515 6.00222 7.52867 6.39018C7.60584 6.77814 7.79632 7.13451 8.07602 7.41422C8.35573 7.69392 8.71209 7.8844 9.10006 7.96157C9.48802 8.03874 9.89015 7.99914 10.2556 7.84776C10.6211 7.69639 10.9334 7.44004 11.1532 7.11114C11.3729 6.78224 11.4902 6.39556 11.4902 6C11.4902 5.46957 11.2795 4.96086 10.9045 4.58579C10.5294 4.21072 10.0207 4 9.49024 4V4Z" fill="#24AC86"/>
<path d="M21.4902 25C20.6991 25 19.9258 24.7654 19.268 24.3259C18.6102 23.8864 18.0975 23.2616 17.7947 22.5307C17.492 21.7998 17.4128 20.9956 17.5671 20.2196C17.7214 19.4437 18.1024 18.731 18.6618 18.1716C19.2212 17.6122 19.934 17.2312 20.7099 17.0769C21.4858 16.9225 22.2901 17.0017 23.021 17.3045C23.7519 17.6072 24.3766 18.1199 24.8161 18.7777C25.2556 19.4355 25.4902 20.2089 25.4902 21C25.4902 22.0609 25.0688 23.0783 24.3187 23.8284C23.5685 24.5786 22.5511 25 21.4902 25ZM21.4902 19C21.0947 19 20.708 19.1173 20.3791 19.3371C20.0502 19.5568 19.7939 19.8692 19.6425 20.2346C19.4911 20.6001 19.4515 21.0022 19.5287 21.3902C19.6058 21.7781 19.7963 22.1345 20.076 22.4142C20.3557 22.6939 20.7121 22.8844 21.1001 22.9616C21.488 23.0387 21.8902 22.9991 22.2556 22.8478C22.6211 22.6964 22.9334 22.44 23.1532 22.1111C23.3729 21.7822 23.4902 21.3956 23.4902 21C23.4902 20.4696 23.2795 19.9609 22.9044 19.5858C22.5294 19.2107 22.0207 19 21.4902 19Z" fill="#24AC86"/>
<path d="M35.4902 40H27.4902C27.225 40 26.9707 39.8946 26.7831 39.7071C26.5956 39.5196 26.4902 39.2652 26.4902 39C26.4902 38.7348 26.5956 38.4804 26.7831 38.2929C26.9707 38.1054 27.225 38 27.4902 38H34.4902V19C34.4902 18.7348 34.5956 18.4804 34.7831 18.2929C34.9707 18.1054 35.225 18 35.4902 18C35.7555 18 36.0098 18.1054 36.1973 18.2929C36.3849 18.4804 36.4902 18.7348 36.4902 19V39C36.4902 39.2652 36.3849 39.5196 36.1973 39.7071C36.0098 39.8946 35.7555 40 35.4902 40Z" fill="#24AC86"/>
<path d="M35.4902 27C35.225 27 34.9707 26.8947 34.7831 26.7071C34.5956 26.5196 34.4902 26.2652 34.4902 26C34.4902 25.7348 34.5956 25.4804 34.7831 25.2929C34.9707 25.1054 35.225 25 35.4902 25C35.9883 24.9116 36.4472 24.6723 36.8048 24.3146C37.1625 23.9569 37.4018 23.4981 37.4902 23V15C37.5183 14.2714 37.2719 13.5588 36.7996 13.0033C36.3274 12.4477 35.6638 12.0897 34.9402 12L31.2802 16.58C31.1866 16.6986 31.0674 16.7945 30.9314 16.8604C30.7955 16.9263 30.6463 16.9605 30.4952 16.9605C30.3441 16.9605 30.195 16.9263 30.0591 16.8604C29.9231 16.7945 29.8038 16.6986 29.7102 16.58L26.0502 12C25.3258 12.0896 24.6611 12.4472 24.1872 13.0025C23.7134 13.5578 23.4647 14.2705 23.4902 15C23.4902 15.2652 23.3849 15.5196 23.1973 15.7071C23.0098 15.8947 22.7555 16 22.4902 16C22.225 16 21.9707 15.8947 21.7831 15.7071C21.5956 15.5196 21.4902 15.2652 21.4902 15C21.4902 13.6739 22.017 12.4022 22.9547 11.4645C23.8924 10.5268 25.1642 10 26.4902 10C26.6421 9.9992 26.7922 10.033 26.9291 10.0988C27.066 10.1647 27.1861 10.2608 27.2802 10.38L30.4902 14.38L33.7102 10.38C33.8034 10.2622 33.9218 10.1668 34.0569 10.101C34.1919 10.0352 34.34 10.0007 34.4902 10C35.8163 10 37.0881 10.5268 38.0258 11.4645C38.9635 12.4022 39.4902 13.6739 39.4902 15V23C39.402 24.0313 38.9523 24.9983 38.2204 25.7302C37.4885 26.4621 36.5215 26.9118 35.4902 27V27Z" fill="#24AC86"/>
<path d="M30.4902 10C29.5013 10 28.5346 9.70676 27.7124 9.15735C26.8901 8.60794 26.2493 7.82705 25.8708 6.91342C25.4924 5.99979 25.3934 4.99446 25.5863 4.02455C25.7792 3.05465 26.2554 2.16373 26.9547 1.46447C27.654 0.765206 28.5449 0.289002 29.5148 0.0960759C30.4847 -0.0968503 31.49 0.00216642 32.4037 0.380605C33.3173 0.759043 34.0982 1.39991 34.6476 2.22215C35.197 3.0444 35.4902 4.0111 35.4902 5C35.4902 6.32608 34.9635 7.59785 34.0258 8.53554C33.0881 9.47322 31.8163 10 30.4902 10V10ZM30.4902 2C29.8969 2 29.3169 2.17595 28.8235 2.50559C28.3302 2.83524 27.9457 3.30377 27.7186 3.85195C27.4915 4.40013 27.4321 5.00333 27.5479 5.58527C27.6636 6.16722 27.9494 6.70177 28.3689 7.12132C28.7885 7.54088 29.323 7.8266 29.905 7.94236C30.4869 8.05811 31.0901 7.9987 31.6383 7.77164C32.1865 7.54458 32.655 7.16006 32.9846 6.66671C33.3143 6.17337 33.4902 5.59335 33.4902 5C33.4902 4.20435 33.1742 3.44129 32.6116 2.87868C32.0489 2.31607 31.2859 2 30.4902 2V2Z" fill="#24AC86"/>
<path d="M30.4902 40C30.225 40 29.9707 39.8946 29.7831 39.7071C29.5956 39.5196 29.4902 39.2652 29.4902 39V29C29.4902 28.7348 29.5956 28.4804 29.7831 28.2929C29.9707 28.1054 30.225 28 30.4902 28C30.7555 28 31.0098 28.1054 31.1973 28.2929C31.3849 28.4804 31.4902 28.7348 31.4902 29V39C31.4902 39.2652 31.3849 39.5196 31.1973 39.7071C31.0098 39.8946 30.7555 40 30.4902 40Z" fill="#24AC86"/>
<path d="M14.5497 15.32L16.4397 21C16.9147 21.0011 17.3828 21.115 17.8052 21.3323C18.2277 21.5496 18.5925 21.8641 18.8697 22.25C18.8436 22.0943 18.8069 21.9406 18.7597 21.79L16.3897 14.67C15.5797 12.34 14.1497 11 12.3897 11C12.1273 11.0011 11.8759 11.1053 11.6897 11.29L9.38965 13.59L7.19965 11.29C7.10621 11.1973 6.9954 11.124 6.87356 11.0742C6.75172 11.0245 6.62126 10.9993 6.48965 11C4.78965 11 3.34965 12.34 2.54965 14.68L0.179652 21.79C-0.0499769 22.5052 -0.052102 23.274 0.17357 23.9904C0.399243 24.7068 0.841598 25.3356 1.43965 25.79C1.7288 25.9879 2.05982 26.1161 2.4068 26.1647C2.75378 26.2133 3.10729 26.1809 3.43965 26.07C3.81684 25.9266 4.15478 25.696 4.42588 25.3971C4.69699 25.0981 4.8936 24.7394 4.99965 24.35L6.44965 19.27C6.52126 19.0141 6.48827 18.7402 6.35793 18.5086C6.29339 18.3939 6.2069 18.2931 6.10339 18.2118C5.99988 18.1305 5.88138 18.0705 5.75465 18.035C5.49872 17.9634 5.22482 17.9964 4.99321 18.1267C4.76161 18.2571 4.59126 18.4741 4.51965 18.73L3.07965 23.8C3.00965 24.07 2.87965 24.2 2.78965 24.23C2.69965 24.26 2.61965 24.23 2.54965 24.17C2.30804 23.9568 2.13461 23.6771 2.05102 23.3658C1.96743 23.0546 1.97739 22.7256 2.07965 22.42L4.43965 15.33C4.60965 14.84 5.18965 13.33 6.13965 13.06L8.78965 15.71C8.97702 15.8963 9.23047 16.0008 9.49465 16.0008C9.75884 16.0008 10.0123 15.8963 10.1997 15.71L12.8497 13.06C13.7997 13.37 14.3797 14.84 14.5497 15.32Z" fill="#24AC86"/>
</g>
<defs>
<clipPath id="clip0_5_109">
<rect width="39.49" height="40" fill="white"/>
</clipPath>
</defs>
</svg>
