<svg width="29" height="32" viewBox="0 0 29 32" fill="none" xmlns="http://www.w3.org/2000/svg">
<g clip-path="url(#clip0_5_93)">
<path d="M28.8438 1.64218C28.7973 1.60033 28.7446 1.56628 28.6876 1.54133L28.0911 1.26758C26.9584 0.784407 25.7775 0.426933 24.569 0.20139L23.8022 0.0861268C22.6299 -0.0614509 21.4423 -0.0274442 20.2801 0.186982V0.186982L19.5984 0.345469C18.3431 0.692037 17.153 1.24704 16.0764 1.98797L15.3095 2.49225L14.9403 2.73718C13.9076 3.45894 12.8309 4.11341 11.7165 4.69666L10.9638 5.07127C10.5803 5.25857 10.1685 5.43147 9.74241 5.60436C8.99008 5.90202 8.22199 6.15695 7.44172 6.36798L6.67483 6.56969C5.51475 6.8348 4.33789 7.01775 3.15279 7.11719L2.74094 7.20364H2.62733V5.63318C2.5935 5.30361 2.44052 4.99844 2.19791 4.77661C1.9553 4.55477 1.64027 4.432 1.31366 4.432C0.987055 4.432 0.67203 4.55477 0.42942 4.77661C0.186809 4.99844 0.0338221 5.30361 0 5.63318L0 31.9997H28.4035C28.4737 32.0016 28.5436 31.9892 28.609 31.9633C28.6744 31.9374 28.734 31.8984 28.7843 31.8487C28.8346 31.799 28.8746 31.7396 28.9019 31.674C28.9292 31.6083 28.9432 31.5378 28.9432 31.4666V2.01679C28.9562 1.8838 28.9209 1.75056 28.8438 1.64218V1.64218ZM6.67483 30.9335H3.30901V27.5332H6.67483V30.9335ZM6.67483 26.7696H3.30901V8.18338C4.4408 8.08429 5.56509 7.91103 6.67483 7.6647V26.7696ZM10.9354 30.9335H7.44172V27.5332H10.9638L10.9354 30.9335ZM10.9354 26.7696H7.44172V7.47739C8.35351 7.2411 9.24995 6.94758 10.1259 6.59851L10.9638 6.25272L10.9354 26.7696ZM15.1959 30.9335H11.7165V27.5332H15.2385L15.1959 30.9335ZM15.1959 26.7696H11.7165V5.89252C12.9408 5.2819 14.1181 4.57873 15.2385 3.78896L15.1959 26.7696ZM19.4564 30.9335H16.0054V27.5332H19.5274L19.4564 30.9335ZM19.4564 26.7696H16.0054V3.28469C17.0747 2.48295 18.2638 1.86031 19.5274 1.44047L19.4564 26.7696ZM23.7169 30.9335H20.2801V27.5332H23.8022L23.7169 30.9335ZM23.7169 26.7696H20.2801V1.28198H20.4079C21.5271 1.06972 22.6715 1.03086 23.8022 1.16672L23.7169 26.7696ZM27.8497 30.9335H24.569V27.5332H27.9349L27.8497 30.9335ZM27.8497 26.7696H24.569V1.29639C25.7288 1.52155 26.8585 1.88423 27.9349 2.37699L27.8497 26.7696Z" fill="#24AC86"/>
</g>
<defs>
<clipPath id="clip0_5_93">
<rect width="29" height="32" fill="white"/>
</clipPath>
</defs>
</svg>
