<svg width="44" height="38" viewBox="0 0 44 38" fill="none" xmlns="http://www.w3.org/2000/svg">
<g clip-path="url(#clip0_5_97)">
<path d="M36.9608 6.53906L39.5008 0.289062" stroke="#24AC86" stroke-width="1.54" stroke-linejoin="round"/>
<path d="M40.0605 7.81992L42.6605 1.41992" stroke="#24AC86" stroke-width="1.54" stroke-linejoin="round"/>
<path d="M31.8708 24.1791C32.9945 23.5763 34.0086 22.7886 34.8708 21.8491C34.8708 21.8491 37.3308 19.1091 40.7208 8.11905L36.2308 6.27905C36.2308 6.27905 31.8008 16.9791 27.6408 16.2791L22.0608 14.9991L7.37078 11.5691C7.37078 11.5691 1.37078 9.67905 0.770776 15.3991C0.770776 15.3991 0.490777 23.7691 5.17078 27.1991C5.17078 27.1991 6.17078 27.9991 10.0608 28.1291" stroke="#24AC86" stroke-width="1.54" stroke-linejoin="round"/>
<path d="M29.8107 28.5587C29.8107 30.224 29.3169 31.8519 28.3917 33.2366C27.4665 34.6212 26.1515 35.7004 24.6129 36.3377C23.0743 36.975 21.3814 37.1418 19.748 36.8169C18.1147 36.492 16.6144 35.6901 15.4369 34.5125C14.2593 33.335 13.4574 31.8347 13.1325 30.2013C12.8076 28.568 12.9744 26.875 13.6116 25.3365C14.2489 23.7979 15.3281 22.4829 16.7128 21.5577C18.0975 20.6325 19.7254 20.1387 21.3907 20.1387C23.6238 20.1387 25.7655 21.0258 27.3445 22.6048C28.9236 24.1839 29.8107 26.3255 29.8107 28.5587V28.5587Z" stroke="#24AC86" stroke-width="1.54" stroke-linejoin="round"/>
<path d="M17.751 29.8688C17.751 29.9961 17.7004 30.1182 17.6104 30.2082C17.5204 30.2982 17.3983 30.3488 17.271 30.3488C17.1445 30.3462 17.0239 30.2948 16.9344 30.2054C16.845 30.1159 16.7936 29.9953 16.791 29.8688C16.791 29.7415 16.8416 29.6194 16.9316 29.5294C17.0216 29.4394 17.1437 29.3888 17.271 29.3888C17.3344 29.3874 17.3975 29.3989 17.4563 29.4225C17.5152 29.4462 17.5686 29.4815 17.6135 29.5263C17.6583 29.5712 17.6936 29.6246 17.7173 29.6835C17.7409 29.7423 17.7524 29.8054 17.751 29.8688V29.8688Z" fill="#394553" stroke="#24AC86" stroke-width="1.54" stroke-miterlimit="10"/>
<path d="M22 28.9983C22 29.1256 21.9494 29.2477 21.8594 29.3377C21.7694 29.4277 21.6473 29.4783 21.52 29.4783C21.454 29.4824 21.3879 29.473 21.3256 29.4509C21.2633 29.4287 21.2061 29.3941 21.1576 29.3493C21.109 29.3044 21.07 29.2502 21.0429 29.1899C21.0158 29.1296 21.0012 29.0644 21 28.9983C21 28.9353 21.0124 28.8729 21.0365 28.8146C21.0607 28.7564 21.096 28.7035 21.1406 28.6589C21.1852 28.6143 21.2381 28.579 21.2963 28.5548C21.3545 28.5307 21.417 28.5183 21.48 28.5183C21.5466 28.5112 21.614 28.5183 21.6777 28.5394C21.7413 28.5604 21.7997 28.5948 21.849 28.6403C21.8982 28.6857 21.9372 28.7412 21.9632 28.8029C21.9893 28.8647 22.0018 28.9313 22 28.9983V28.9983Z" fill="#394553" stroke="#24AC86" stroke-width="1.54" stroke-miterlimit="10"/>
<path d="M26.21 28.189C26.2114 28.2524 26.1999 28.3154 26.1762 28.3743C26.1526 28.4331 26.1173 28.4866 26.0724 28.5314C26.0276 28.5763 25.9741 28.6116 25.9153 28.6352C25.8564 28.6589 25.7934 28.6703 25.73 28.669C25.6027 28.669 25.4806 28.6184 25.3906 28.5284C25.3006 28.4384 25.25 28.3163 25.25 28.189C25.2526 28.0625 25.3039 27.9419 25.3934 27.8524C25.4829 27.7629 25.6035 27.7115 25.73 27.709C25.8573 27.709 25.9794 27.7596 26.0694 27.8496C26.1594 27.9396 26.21 28.0617 26.21 28.189Z" fill="#394553" stroke="#24AC86" stroke-width="1.54" stroke-miterlimit="10"/>
<path d="M24.7508 31.9291C24.7521 31.9925 24.7407 32.0555 24.717 32.1144C24.6934 32.1732 24.6581 32.2267 24.6132 32.2715C24.5684 32.3164 24.5149 32.3517 24.4561 32.3753C24.3972 32.3989 24.3342 32.4104 24.2708 32.4091C24.1435 32.4091 24.0214 32.3585 23.9314 32.2685C23.8413 32.1785 23.7908 32.0564 23.7908 31.9291C23.7933 31.8026 23.8447 31.682 23.9342 31.5925C24.0237 31.503 24.1443 31.4516 24.2708 31.4491C24.3981 31.4491 24.5202 31.4996 24.6102 31.5897C24.7002 31.6797 24.7508 31.8018 24.7508 31.9291V31.9291Z" fill="#394553" stroke="#24AC86" stroke-width="1.54" stroke-miterlimit="10"/>
<path d="M20.5208 32.7691C20.5222 32.8325 20.5107 32.8955 20.487 32.9543C20.4634 33.0132 20.4281 33.0667 20.3832 33.1115C20.3384 33.1564 20.2849 33.1917 20.2261 33.2153C20.1672 33.2389 20.1042 33.2504 20.0408 33.2491C19.9135 33.2491 19.7914 33.1985 19.7014 33.1085C19.6114 33.0185 19.5608 32.8964 19.5608 32.7691C19.5633 32.6426 19.6147 32.5219 19.7042 32.4325C19.7937 32.343 19.9143 32.2916 20.0408 32.2891C20.1681 32.2891 20.2902 32.3396 20.3802 32.4296C20.4702 32.5197 20.5208 32.6418 20.5208 32.7691Z" fill="#394553" stroke="#24AC86" stroke-width="1.54" stroke-miterlimit="10"/>
</g>
<defs>
<clipPath id="clip0_5_97">
<rect width="43.37" height="37.75" fill="white"/>
</clipPath>
</defs>
</svg>
