<svg width="21" height="20" viewBox="0 0 21 20" fill="none" xmlns="http://www.w3.org/2000/svg">
<path d="M10.5 2.00879C7.738 2.00879 5.5 4.23779 5.5 6.99879C5.5 11.7728 10.5 17.9988 10.5 17.9988C10.5 17.9988 15.5 11.7718 15.5 6.99879C15.5 4.23879 13.262 2.00879 10.5 2.00879ZM10.5 9.75979C9.78392 9.75979 9.09716 9.47533 8.59081 8.96898C8.08446 8.46263 7.8 7.77587 7.8 7.05979C7.8 6.3437 8.08446 5.65695 8.59081 5.1506C9.09716 4.64425 9.78392 4.35979 10.5 4.35979C11.2161 4.35979 11.9028 4.64425 12.4092 5.1506C12.9155 5.65695 13.2 6.3437 13.2 7.05979C13.2 7.77587 12.9155 8.46263 12.4092 8.96898C11.9028 9.47533 11.2161 9.75979 10.5 9.75979Z" fill="black"/>
</svg>
