<svg width="15" height="15" viewBox="0 0 15 15" fill="none" xmlns="http://www.w3.org/2000/svg">
<path d="M7.50239 4.49555C5.83979 4.49555 4.49799 5.83735 4.49799 7.49995C4.49799 9.16255 5.83979 10.5043 7.50239 10.5043C9.16499 10.5043 10.5068 9.16255 10.5068 7.49995C10.5068 5.83735 9.16499 4.49555 7.50239 4.49555ZM7.50239 9.45258C6.42719 9.45258 5.54975 8.57514 5.54975 7.49995C5.54975 6.42475 6.42719 5.54731 7.50239 5.54731C8.57758 5.54731 9.45503 6.42475 9.45503 7.49995C9.45503 8.57514 8.57758 9.45258 7.50239 9.45258ZM10.6298 3.67231C10.2416 3.67231 9.92817 3.98579 9.92817 4.37397C9.92817 4.76215 10.2416 5.07563 10.6298 5.07563C11.018 5.07563 11.3315 4.76362 11.3315 4.37397C11.3316 4.2818 11.3135 4.1905 11.2783 4.10532C11.2431 4.02014 11.1914 3.94274 11.1262 3.87756C11.0611 3.81239 10.9837 3.76071 10.8985 3.72549C10.8133 3.69027 10.722 3.67219 10.6298 3.67231ZM13.3588 7.49995C13.3588 6.69135 13.3662 5.89008 13.3207 5.08296C13.2753 4.14546 13.0615 3.31342 12.3759 2.62788C11.6889 1.94087 10.8583 1.72846 9.92085 1.68305C9.11225 1.63764 8.31098 1.64497 7.50385 1.64497C6.69526 1.64497 5.89399 1.63764 5.08686 1.68305C4.14936 1.72846 3.31733 1.94233 2.63178 2.62788C1.94477 3.31489 1.73237 4.14546 1.68696 5.08296C1.64155 5.89155 1.64887 6.69282 1.64887 7.49995C1.64887 8.30708 1.64155 9.10981 1.68696 9.91694C1.73237 10.8544 1.94624 11.6865 2.63178 12.372C3.3188 13.059 4.14936 13.2714 5.08686 13.3168C5.89546 13.3623 6.69672 13.3549 7.50385 13.3549C8.31245 13.3549 9.11372 13.3623 9.92085 13.3168C10.8583 13.2714 11.6904 13.0576 12.3759 12.372C13.0629 11.685 13.2753 10.8544 13.3207 9.91694C13.3676 9.10981 13.3588 8.30854 13.3588 7.49995ZM12.0698 10.954C11.9628 11.2207 11.8339 11.4199 11.6274 11.6249C11.4208 11.8315 11.2231 11.9604 10.9565 12.0673C10.186 12.3735 8.35639 12.3046 7.50239 12.3046C6.64838 12.3046 4.81733 12.3735 4.04682 12.0688C3.78022 11.9619 3.581 11.833 3.37592 11.6264C3.16938 11.4199 3.04047 11.2221 2.93354 10.9555C2.62885 10.1835 2.6977 8.35395 2.6977 7.49995C2.6977 6.64594 2.62885 4.81489 2.93354 4.04438C3.04047 3.77778 3.16938 3.57856 3.37592 3.37348C3.58247 3.1684 3.78022 3.03803 4.04682 2.9311C4.81733 2.62641 6.64838 2.69526 7.50239 2.69526C8.35639 2.69526 10.1874 2.62641 10.958 2.9311C11.2246 3.03803 11.4238 3.16694 11.6289 3.37348C11.8354 3.58003 11.9643 3.77778 12.0712 4.04438C12.3759 4.81489 12.3071 6.64594 12.3071 7.49995C12.3071 8.35395 12.3759 10.1835 12.0698 10.954Z" fill="#191F1D"/>
</svg>
