<svg width="13" height="13" viewBox="0 0 13 13" fill="none" xmlns="http://www.w3.org/2000/svg">
<path d="M6.50044 3.49555C4.83784 3.49555 3.49604 4.83735 3.49604 6.49995C3.49604 8.16255 4.83784 9.50434 6.50044 9.50434C8.16303 9.50434 9.50483 8.16255 9.50483 6.49995C9.50483 4.83735 8.16303 3.49555 6.50044 3.49555ZM6.50044 8.45258C5.42524 8.45258 4.5478 7.57514 4.5478 6.49995C4.5478 5.42475 5.42524 4.54731 6.50044 4.54731C7.57563 4.54731 8.45307 5.42475 8.45307 6.49995C8.45307 7.57514 7.57563 8.45258 6.50044 8.45258ZM9.62788 2.67231C9.23969 2.67231 8.92622 2.98579 8.92622 3.37397C8.92622 3.76215 9.23969 4.07563 9.62788 4.07563C10.0161 4.07563 10.3295 3.76362 10.3295 3.37397C10.3297 3.2818 10.3116 3.1905 10.2764 3.10532C10.2411 3.02014 10.1895 2.94274 10.1243 2.87756C10.0591 2.81239 9.98171 2.76071 9.89653 2.72549C9.81135 2.69027 9.72005 2.67219 9.62788 2.67231ZM12.3569 6.49995C12.3569 5.69135 12.3642 4.89008 12.3188 4.08296C12.2734 3.14546 12.0595 2.31342 11.374 1.62788C10.687 0.940865 9.85639 0.728463 8.91889 0.683053C8.1103 0.637643 7.30903 0.644967 6.5019 0.644967C5.69331 0.644967 4.89204 0.637643 4.08491 0.683053C3.14741 0.728463 2.31538 0.94233 1.62983 1.62788C0.942819 2.31489 0.730416 3.14546 0.685006 4.08296C0.639596 4.89155 0.64692 5.69282 0.64692 6.49995C0.64692 7.30708 0.639596 8.10981 0.685006 8.91694C0.730416 9.85444 0.944283 10.6865 1.62983 11.372C2.31684 12.059 3.14741 12.2714 4.08491 12.3168C4.8935 12.3623 5.69477 12.3549 6.5019 12.3549C7.31049 12.3549 8.11176 12.3623 8.91889 12.3168C9.85639 12.2714 10.6884 12.0576 11.374 11.372C12.061 10.685 12.2734 9.85444 12.3188 8.91694C12.3657 8.10981 12.3569 7.30854 12.3569 6.49995ZM11.0678 9.95405C10.9609 10.2207 10.832 10.4199 10.6254 10.6249C10.4189 10.8315 10.2211 10.9604 9.95454 11.0673C9.18403 11.3735 7.35444 11.3046 6.50044 11.3046C5.64643 11.3046 3.81538 11.3735 3.04487 11.0688C2.77827 10.9619 2.57905 10.833 2.37397 10.6264C2.16743 10.4199 2.03852 10.2221 1.93159 9.95551C1.6269 9.18354 1.69575 7.35395 1.69575 6.49995C1.69575 5.64594 1.6269 3.81489 1.93159 3.04438C2.03852 2.77778 2.16743 2.57856 2.37397 2.37348C2.58051 2.1684 2.77827 2.03803 3.04487 1.9311C3.81538 1.62641 5.64643 1.69526 6.50044 1.69526C7.35444 1.69526 9.1855 1.62641 9.956 1.9311C10.2226 2.03803 10.4218 2.16694 10.6269 2.37348C10.8334 2.58003 10.9623 2.77778 11.0693 3.04438C11.374 3.81489 11.3051 5.64594 11.3051 6.49995C11.3051 7.35395 11.374 9.18354 11.0678 9.95405Z" fill="#184F3B"/>
</svg>
