<svg width="50" height="67" viewBox="0 0 50 67" fill="none" xmlns="http://www.w3.org/2000/svg">
<g clip-path="url(#clip0_706_1580)">
<path d="M25 0C11.2146 0 0 11.2937 0 25.1711C0 45.9557 23.3354 65.9133 24.3292 66.7529C24.5148 66.912 24.7504 67 24.9943 67.0015C25.2382 67.0031 25.4749 66.918 25.6625 66.7613C26.6562 65.9364 50 46.3221 50 25.1711C50 11.2937 38.7854 0 25 0ZM25.0042 64.5671C21.1687 61.1228 2.08333 43.0873 2.08333 25.1711C2.08333 12.4453 12.3646 2.09375 25 2.09375C37.6354 2.09375 47.9167 12.4453 47.9167 25.1711C47.9167 43.3909 28.85 61.1689 25.0042 64.5671Z" fill="white"/>
<path d="M25 12.5625C18.1062 12.5625 12.5 18.1968 12.5 25.125C12.5 32.0532 18.1062 37.6875 25 37.6875C31.8937 37.6875 37.5 32.0532 37.5 25.125C37.5 18.1968 31.8937 12.5625 25 12.5625ZM25 35.5938C19.2562 35.5938 14.5833 30.8975 14.5833 25.125C14.5833 19.3525 19.2562 14.6562 25 14.6562C30.7437 14.6562 35.4167 19.3525 35.4167 25.125C35.4167 30.8975 30.7437 35.5938 25 35.5938Z" fill="white"/>
</g>
<defs>
<clipPath id="clip0_706_1580">
<rect width="50" height="67" fill="white"/>
</clipPath>
</defs>
</svg>
