<svg width="18" height="27" viewBox="0 0 18 27" fill="none" xmlns="http://www.w3.org/2000/svg">
<g clip-path="url(#clip0_5_69)">
<path d="M9 0C4.02759 0 0 4.02792 0 9.00073C0 13.1122 2.1709 17.5312 4.30664 20.9548C6.44238 24.3784 8.57812 26.8088 8.57812 26.8088C8.68579 26.9297 8.8396 27 9 27C9.1604 27 9.31421 26.9297 9.42188 26.8088C9.42188 26.8088 11.5598 24.3279 13.6934 20.8845C15.8269 17.4411 18 13.033 18 9.00073C18 4.02792 13.9724 0 9 0ZM9 1.12509C13.366 1.12509 16.875 4.63441 16.875 9.00073C16.875 12.6199 14.8293 16.9225 12.7441 20.2868C10.9973 23.1061 9.51855 24.9212 9 25.5431C8.47705 24.9256 6.99829 23.1501 5.25586 20.3571C3.17285 17.017 1.125 12.7078 1.125 9.00073C1.125 4.63441 4.63403 1.12509 9 1.12509ZM9 5.62546C6.8313 5.62546 5.0625 7.3944 5.0625 9.56328C5.0625 11.7322 6.8313 13.5011 9 13.5011C11.1687 13.5011 12.9375 11.7322 12.9375 9.56328C12.9375 7.3944 11.1687 5.62546 9 5.62546ZM9 6.75055C10.5601 6.75055 11.8125 8.00309 11.8125 9.56328C11.8125 11.1235 10.5601 12.376 9 12.376C7.43994 12.376 6.1875 11.1235 6.1875 9.56328C6.1875 8.00309 7.43994 6.75055 9 6.75055Z" fill="#24AC86"/>
</g>
<defs>
<clipPath id="clip0_5_69">
<rect width="18" height="27" fill="white"/>
</clipPath>
</defs>
</svg>
