<svg width="15" height="15" viewBox="0 0 15 15" fill="none" xmlns="http://www.w3.org/2000/svg">
<path d="M7.5 1.875C4.39875 1.875 1.875 4.39875 1.875 7.5C1.875 10.6012 4.39875 13.125 7.5 13.125C10.6012 13.125 13.125 10.6012 13.125 7.5C13.125 4.39875 10.6012 1.875 7.5 1.875ZM7.5 2.8125C10.0945 2.8125 12.1875 4.90547 12.1875 7.5C12.1886 8.62217 11.7862 9.70734 11.0538 10.5575C10.3213 11.4076 9.30751 11.966 8.1975 12.1308V8.86688H9.5325L9.74203 7.51078H8.1975V6.77016C8.1975 6.20766 8.38266 5.7075 8.90906 5.7075H9.75516V4.52438C9.60656 4.50422 9.29203 4.46062 8.69766 4.46062C7.45641 4.46062 6.72891 5.11594 6.72891 6.60938V7.51078H5.45297V8.86688H6.72891V12.1191C5.63426 11.9389 4.63933 11.3754 3.92189 10.5292C3.20444 9.68306 2.81123 8.60938 2.8125 7.5C2.8125 4.90547 4.90547 2.8125 7.5 2.8125Z" fill="#191F1D"/>
</svg>
