<svg width="40" height="21" viewBox="0 0 40 21" fill="none" xmlns="http://www.w3.org/2000/svg">
<g clip-path="url(#clip0_5_122)">
<path d="M2.46094 17.4618C4.10146 18.2494 4.94633 20.0966 7.27176 20.0966C10.2247 20.0966 10.4134 17.1113 13.6329 17.1113C16.8524 17.1113 16.9139 20.0966 19.8956 20.0966C22.8772 20.0966 23.0249 17.1113 26.3551 17.1113C29.6854 17.1113 29.5746 20.0966 32.7162 20.0966C35.4682 20.0966 35.2016 17.8123 37.806 17.2392" stroke="#24AC86" stroke-width="2" stroke-linecap="round" stroke-linejoin="round"/>
<path d="M2.46106 1.23633C4.10158 2.03625 4.92184 3.88762 7.25958 3.88762C10.2125 3.88762 10.4012 0.902344 13.6207 0.902344C16.8402 0.902344 16.9017 3.88762 19.8834 3.88762C22.865 3.88762 23.0127 0.902344 26.3429 0.902344C29.6732 0.902344 29.5625 3.88762 32.7041 3.88762C35.456 3.88762 35.1895 1.59918 37.7938 1.03017" stroke="#24AC86" stroke-width="2" stroke-linecap="round" stroke-linejoin="round"/>
<path d="M0.898438 9.10361C3.73654 9.10361 4.30662 12.0889 7.25956 12.0889C10.2125 12.0889 10.4012 9.10361 13.6207 9.10361C16.8402 9.10361 16.9017 12.0889 19.8834 12.0889C22.865 12.0889 23.0127 9.10361 26.3429 9.10361C29.6732 9.10361 29.5624 12.0889 32.704 12.0889C35.8456 12.0889 35.0541 9.10361 39.1062 9.10361" stroke="#24AC86" stroke-width="2" stroke-linecap="round" stroke-linejoin="round"/>
</g>
<defs>
<clipPath id="clip0_5_122">
<rect width="40" height="21" fill="white"/>
</clipPath>
</defs>
</svg>
