<svg width="24" height="24" viewBox="0 0 24 24" fill="none" xmlns="http://www.w3.org/2000/svg">
<g clip-path="url(#clip0_706_2915)">
<path d="M12.0026 11.3333C12.9256 11.3333 13.8278 11.0596 14.5953 10.5469C15.3627 10.0341 15.9608 9.30525 16.314 8.45252C16.6673 7.5998 16.7597 6.66149 16.5796 5.75625C16.3995 4.851 15.9551 4.01948 15.3024 3.36684C14.6498 2.71419 13.8183 2.26974 12.913 2.08967C12.0078 1.90961 11.0695 2.00202 10.2167 2.35523C9.36403 2.70844 8.63519 3.30658 8.12241 4.07401C7.60963 4.84144 7.33594 5.74369 7.33594 6.66667C7.33594 7.90435 7.8276 9.09133 8.70277 9.9665C9.57794 10.8417 10.7649 11.3333 12.0026 11.3333ZM12.0026 3.33334C12.6619 3.33334 13.3063 3.52883 13.8545 3.8951C14.4027 4.26137 14.8299 4.78197 15.0822 5.39106C15.3345 6.00014 15.4005 6.67037 15.2719 7.31697C15.1433 7.96357 14.8258 8.55752 14.3596 9.02369C13.8935 9.48987 13.2995 9.80734 12.6529 9.93595C12.0063 10.0646 11.3361 9.99856 10.727 9.74627C10.1179 9.49397 9.59731 9.06673 9.23104 8.51857C8.86477 7.97041 8.66927 7.32594 8.66927 6.66667C8.66927 5.78261 9.02046 4.93477 9.64558 4.30965C10.2707 3.68452 11.1185 3.33334 12.0026 3.33334Z" fill="#191F1D"/>
<path d="M20.3159 16.2475C19.2468 15.1175 17.9585 14.2174 16.5296 13.6023C15.1008 12.9872 13.5615 12.6699 12.0059 12.6699C10.4503 12.6699 8.91107 12.9872 7.48224 13.6023C6.05342 14.2174 4.76507 15.1175 3.69594 16.2475C3.46415 16.4951 3.33541 16.8217 3.33594 17.1608V20.6675C3.33594 21.0211 3.47641 21.3603 3.72646 21.6103C3.97651 21.8604 4.31565 22.0008 4.66927 22.0008H19.3359C19.6896 22.0008 20.0287 21.8604 20.2787 21.6103C20.5288 21.3603 20.6693 21.0211 20.6693 20.6675V17.1608C20.6716 16.8226 20.5453 16.4961 20.3159 16.2475ZM19.3359 20.6675H4.66927V17.1542C5.61409 16.1593 6.75147 15.3671 8.01218 14.8257C9.27289 14.2843 10.6306 14.0052 12.0026 14.0052C13.3746 14.0052 14.7323 14.2843 15.993 14.8257C17.2537 15.3671 18.3911 16.1593 19.3359 17.1542V20.6675Z" fill="#191F1D"/>
</g>
<defs>
<clipPath id="clip0_706_2915">
<rect width="24" height="24" fill="white"/>
</clipPath>
</defs>
</svg>
