<svg width="10" height="10" viewBox="0 0 10 10" fill="none" xmlns="http://www.w3.org/2000/svg">
<g clip-path="url(#clip0_706_3680)">
<mask id="mask0_706_3680" style="mask-type:alpha" maskUnits="userSpaceOnUse" x="0" y="0" width="10" height="10">
<path d="M0 0H10V10H0V0Z" fill="white"/>
</mask>
<g mask="url(#mask0_706_3680)">
<path fill-rule="evenodd" clip-rule="evenodd" d="M7.25625 5.99249C7.13208 5.9304 6.52333 5.63124 6.41 5.58957C6.29667 5.54832 6.21417 5.5279 6.13125 5.65207C6.04875 5.7754 5.81167 6.05457 5.73958 6.13707C5.66708 6.21999 5.595 6.22999 5.47125 6.16832C5.3475 6.10582 4.94833 5.9754 4.47542 5.55374C4.1075 5.2254 3.85875 4.81999 3.78667 4.69582C3.71458 4.57207 3.77875 4.50499 3.84083 4.44332C3.89667 4.3879 3.96458 4.29874 4.02667 4.22665C4.08875 4.15415 4.10917 4.10249 4.15042 4.01957C4.19208 3.93707 4.17125 3.86499 4.14 3.8029C4.10917 3.74082 3.86167 3.13124 3.75833 2.88332C3.65792 2.64207 3.55583 2.67499 3.48 2.67082C3.4075 2.66749 3.325 2.66665 3.2425 2.66665C3.16 2.66665 3.02583 2.69749 2.9125 2.82165C2.79875 2.9454 2.47917 3.24499 2.47917 3.85457C2.47917 4.46374 2.9225 5.05249 2.98458 5.1354C3.04667 5.2179 3.8575 6.46874 5.09958 7.00499C5.39542 7.13249 5.62583 7.20874 5.80542 7.2654C6.10208 7.35999 6.37208 7.34665 6.58542 7.31457C6.82292 7.27915 7.31792 7.01499 7.42125 6.72582C7.52417 6.43665 7.52417 6.18874 7.49333 6.13707C7.4625 6.0854 7.38 6.05457 7.25583 5.99249H7.25625ZM4.99708 9.07707H4.99542C4.25768 9.0772 3.53349 8.87889 2.89875 8.5029L2.74875 8.41374L1.18958 8.8229L1.60583 7.3029L1.50792 7.14707C1.09547 6.49055 0.877206 5.73073 0.878333 4.9554C0.879167 2.68457 2.72667 0.83707 4.99875 0.83707C6.09875 0.83707 7.13292 1.26624 7.91042 2.04457C8.29391 2.42648 8.59786 2.88064 8.8047 3.38078C9.01153 3.88092 9.11714 4.4171 9.11542 4.95832C9.11458 7.22915 7.26708 9.07707 4.99708 9.07707ZM8.50208 1.45332C8.043 0.991205 7.49676 0.624794 6.89504 0.37532C6.29331 0.125846 5.64806 -0.00172895 4.99667 -1.34436e-05C2.26583 -1.34436e-05 0.0425 2.2229 0.0416667 4.95499C0.0404013 5.82447 0.268489 6.6789 0.702917 7.43207L0 9.99999L2.62667 9.31082C3.35328 9.7067 4.16754 9.91414 4.995 9.91415H4.99708C7.72792 9.91415 9.95125 7.69124 9.95208 4.95874C9.9541 4.3076 9.82698 3.66253 9.5781 3.06083C9.32921 2.45914 8.96348 1.91277 8.50208 1.45332Z" fill="#191F1D"/>
</g>
</g>
<defs>
<clipPath id="clip0_706_3680">
<rect width="10" height="10" fill="white"/>
</clipPath>
</defs>
</svg>
