<svg width="15" height="15" viewBox="0 0 15 15" fill="none" xmlns="http://www.w3.org/2000/svg">
<g clip-path="url(#clip0_706_1706)">
<mask id="mask0_706_1706" style="mask-type:alpha" maskUnits="userSpaceOnUse" x="0" y="0" width="15" height="15">
<path d="M0 0H15V15H0V0Z" fill="white"/>
</mask>
<g mask="url(#mask0_706_1706)">
<path fill-rule="evenodd" clip-rule="evenodd" d="M10.8844 8.98878C10.6981 8.89565 9.785 8.4469 9.615 8.3844C9.445 8.32253 9.32125 8.2919 9.19688 8.47815C9.07313 8.66315 8.7175 9.0819 8.60938 9.20565C8.50063 9.33003 8.3925 9.34503 8.20688 9.25253C8.02125 9.15878 7.4225 8.96315 6.71313 8.33065C6.16125 7.83815 5.78813 7.23003 5.68 7.04378C5.57188 6.85815 5.66813 6.75753 5.76125 6.66503C5.845 6.5819 5.94688 6.44815 6.04 6.34003C6.13313 6.23128 6.16375 6.15378 6.22563 6.0294C6.28813 5.90565 6.25688 5.79753 6.21 5.7044C6.16375 5.61128 5.7925 4.6969 5.6375 4.32503C5.48688 3.96315 5.33375 4.01253 5.22 4.00628C5.11125 4.00128 4.9875 4.00003 4.86375 4.00003C4.74 4.00003 4.53875 4.04628 4.36875 4.23253C4.19813 4.41815 3.71875 4.86753 3.71875 5.7819C3.71875 6.69565 4.38375 7.57878 4.47688 7.70315C4.57 7.8269 5.78625 9.70315 7.64938 10.5075C8.09313 10.6988 8.43875 10.8132 8.70813 10.8982C9.15313 11.04 9.55813 11.02 9.87813 10.9719C10.2344 10.9188 10.9769 10.5225 11.1319 10.0888C11.2863 9.65503 11.2863 9.28315 11.24 9.20565C11.1938 9.12815 11.07 9.0819 10.8838 8.98878H10.8844ZM7.49563 13.6157H7.49313C6.38652 13.6159 5.30023 13.3184 4.34813 12.7544L4.12313 12.6207L1.78438 13.2344L2.40875 10.9544L2.26188 10.7206C1.64321 9.73587 1.31581 8.59614 1.3175 7.43315C1.31875 4.0269 4.09 1.25565 7.49813 1.25565C9.14813 1.25565 10.6994 1.8994 11.8656 3.0669C12.4409 3.63976 12.8968 4.321 13.207 5.07121C13.5173 5.82142 13.6757 6.6257 13.6731 7.43753C13.6719 10.8438 10.9006 13.6157 7.49563 13.6157ZM12.7531 2.18003C12.0645 1.48685 11.2451 0.937236 10.3426 0.563026C9.43997 0.188815 8.47208 -0.00254765 7.495 2.5611e-05C3.39875 2.5611e-05 0.06375 3.3344 0.0625 7.43253C0.0606019 8.73674 0.402734 10.0184 1.05438 11.1481L0 15L3.94 13.9663C5.02992 14.5601 6.25131 14.8712 7.4925 14.8713H7.49563C11.5919 14.8713 14.9269 11.5369 14.9281 7.43815C14.9311 6.46145 14.7405 5.49384 14.3671 4.5913C13.9938 3.68875 13.4452 2.86919 12.7531 2.18003Z" fill="#184F3B"/>
</g>
</g>
<defs>
<clipPath id="clip0_706_1706">
<rect width="15" height="15" fill="white"/>
</clipPath>
</defs>
</svg>
