<svg width="122" height="44" viewBox="0 0 122 44" fill="none" xmlns="http://www.w3.org/2000/svg">
<g clip-path="url(#clip0_706_1725)">
<path d="M0 44H20.4459V3.81085L0 19.085V44ZM3.38287 20.6979L17.0135 10.6137V40.5586H3.38287V20.6979Z" fill="white"/>
<path d="M23.8652 1.26822V43.9938H27.2481L27.2791 1.26822L25.5691 0L23.8652 1.26822Z" fill="white"/>
<path d="M30.6445 44H51.0904V19.0234L30.6445 3.79852V44ZM34.077 10.6137L47.7076 20.6856V40.4601H33.9902L34.077 10.6137Z" fill="white"/>
<path d="M62.3608 19.325C62.9469 18.8801 63.3955 18.2808 63.6557 17.5951C63.9546 16.8087 64.0997 15.9729 64.0832 15.1325C64.093 14.3179 63.9304 13.5104 63.6062 12.7623C63.3302 12.09 62.8406 11.5257 62.2121 11.1554C61.4503 10.7561 60.594 10.5689 59.7338 10.6137H57.6211V19.9776H59.8516C60.7372 20.0378 61.6184 19.8086 62.3608 19.325ZM59.1948 18.7402V11.8696H59.8144C61.5368 11.8696 62.4042 13.0147 62.4042 15.311C62.4458 16.1843 62.2305 17.0507 61.7846 17.8044C61.5661 18.1183 61.2687 18.3698 60.9219 18.534C60.5752 18.6982 60.1912 18.7692 59.8082 18.7402H59.1948Z" fill="white"/>
<path d="M71.0225 18.7155H67.1254V15.7912H70.1304V14.5415H67.1254V11.8696H70.9606V10.6321H65.5703V19.9776H71.0225V18.7155Z" fill="white"/>
<path d="M73.3818 19.8483C73.8935 20.0606 74.4445 20.1634 74.9989 20.15C75.6719 20.1846 76.3397 20.015 76.9134 19.6636C77.3578 19.3771 77.6816 18.9393 77.8241 18.4323C77.9734 17.7387 78.0379 17.0297 78.0162 16.3207V10.6321H76.616V16.4069C76.6433 16.9482 76.5974 17.4907 76.4797 18.0199C76.3962 18.2715 76.2304 18.4882 76.0088 18.6355C75.7302 18.7992 75.4087 18.8764 75.0856 18.8571C74.7342 18.8778 74.3857 18.7826 74.0943 18.5862C73.8506 18.4081 73.6809 18.1475 73.6173 17.8536C73.537 17.3799 73.5038 16.8994 73.5181 16.4192V10.6321H71.994V16.4315C71.9376 17.2578 72.058 18.0865 72.3471 18.8633C72.5643 19.3026 72.9308 19.6515 73.3818 19.8483Z" fill="white"/>
<path d="M80.711 19.9776H82.2723V11.9496H84.3727V10.6321H78.623V11.9496H80.711V19.9776Z" fill="white"/>
<path d="M87.9797 18.8695C86.9512 18.8695 86.3193 18.2969 86.0776 17.1457L84.6836 17.5335C85.0987 19.282 86.1706 20.15 87.9116 20.15C88.3385 20.1746 88.7661 20.1143 89.1693 19.9726C89.5725 19.831 89.9432 19.6108 90.2597 19.3251C90.5261 19.0633 90.7361 18.7503 90.8767 18.4053C91.0173 18.0602 91.0857 17.6903 91.0776 17.3181C91.0872 16.8894 90.9857 16.4654 90.7828 16.087C90.5799 15.7086 90.2824 15.3883 89.919 15.1572C89.4505 14.8815 88.9568 14.6506 88.4444 14.4676C87.9125 14.2944 87.4078 14.0478 86.945 13.735C86.8214 13.6379 86.7227 13.5131 86.657 13.3707C86.5914 13.2284 86.5605 13.0727 86.5671 12.9162C86.5656 12.6083 86.6857 12.3121 86.9017 12.0913C87.0249 11.9676 87.1731 11.8713 87.3365 11.8087C87.4998 11.7461 87.6747 11.7186 87.8496 11.728C88.2321 11.7074 88.6076 11.8355 88.8967 12.0851C89.1951 12.391 89.4086 12.7686 89.5163 13.1809L90.8483 12.7192C90.7215 12.0561 90.356 11.4616 89.82 11.0469C89.2841 10.6322 88.6144 10.4257 87.9363 10.466C87.5565 10.4478 87.1769 10.5061 86.8202 10.6373C86.4636 10.7685 86.1372 10.9698 85.8608 11.2294C85.6066 11.4651 85.4051 11.7514 85.2696 12.0696C85.134 12.3878 85.0673 12.7308 85.0739 13.0763C85.0657 13.5376 85.1881 13.992 85.4271 14.3876C85.6359 14.7424 85.9296 15.0406 86.2821 15.2557C86.8035 15.5502 87.3485 15.8014 87.9116 16.0067C88.4008 16.148 88.8491 16.4034 89.2189 16.7517C89.4145 17.0049 89.5105 17.3203 89.4888 17.6387C89.4672 17.9572 89.3293 18.2569 89.1011 18.4816C88.9493 18.6167 88.772 18.7205 88.5795 18.7871C88.387 18.8536 88.1832 18.8816 87.9797 18.8695Z" fill="white"/>
<path d="M95.6241 11.7403C96.5204 11.7403 97.047 12.4483 97.204 13.8643L98.6538 13.6549C98.3564 11.5248 97.3444 10.4597 95.6179 10.4597C95.1205 10.4318 94.6243 10.5309 94.1764 10.7475C93.7285 10.9641 93.3438 11.2911 93.059 11.6972C92.3973 12.7853 92.086 14.0484 92.1669 15.3172C92.1053 16.5408 92.3977 17.7564 93.0095 18.8202C93.2783 19.245 93.657 19.5902 94.1061 19.8198C94.5551 20.0494 95.058 20.1549 95.5621 20.1253C97.3217 20.1253 98.344 19.0911 98.66 17.0102L97.2226 16.8132C97.1664 17.346 96.9952 17.8604 96.7207 18.3215C96.6029 18.4949 96.4413 18.6345 96.2521 18.7264C96.0629 18.8182 95.8527 18.8591 95.6427 18.8448C94.4407 18.8448 93.8397 17.6997 93.8397 15.4095C93.8273 12.9634 94.4221 11.7403 95.6241 11.7403Z" fill="white"/>
<path d="M104.262 14.5107H101.487V10.6321H99.9316V19.9776H101.487V15.8159H104.262V19.9776H105.818V10.6321H104.262V14.5107Z" fill="white"/>
<path d="M113.071 18.7155H109.18V15.7912H112.185V14.5415H109.18V11.8696H113.009V10.6321H107.619V19.9776H113.071V18.7155Z" fill="white"/>
<path d="M118.599 19.9776H120.29L118.506 15.7543C118.969 15.5368 119.355 15.185 119.612 14.7455C119.87 14.3059 119.988 13.799 119.95 13.2917C119.973 12.928 119.92 12.5636 119.794 12.2213C119.668 11.879 119.472 11.5664 119.219 11.3032C118.58 10.793 117.768 10.5461 116.951 10.6137H114.113V19.9776H115.675V16.0744H117.137L118.599 19.9776ZM115.675 14.8801V11.8019H116.877C117.905 11.8019 118.419 12.2882 118.419 13.2671C118.436 13.6797 118.302 14.0844 118.041 14.406C117.891 14.5627 117.707 14.6839 117.503 14.7606C117.3 14.8373 117.081 14.8676 116.864 14.8493L115.675 14.8801Z" fill="white"/>
<path d="M59.1938 22.5571H57.6387V31.9087H59.1938V22.5571Z" fill="white"/>
<path d="M69.2938 31.9026V22.551H67.082L65.1551 29.2923L63.2778 22.551H60.9668V31.9026H62.2679V23.9178L64.4612 31.9026H65.595L67.8317 23.9239V31.9026H69.2938Z" fill="white"/>
<path d="M77.9293 23.9239V31.9026H79.3915V22.551H77.1734L75.2466 29.2923L73.3755 22.551H71.0645V31.9026H72.3656V23.9178L74.5588 31.9026H75.6927L77.9293 23.9239Z" fill="white"/>
<path d="M86.7826 30.8499C87.4297 29.7545 87.7298 28.4909 87.6438 27.2237C87.7306 25.9576 87.4281 24.6952 86.7764 23.6037C86.4793 23.2228 86.0985 22.9145 85.663 22.7024C85.2275 22.4903 84.749 22.38 84.264 22.38C83.7791 22.38 83.3005 22.4903 82.865 22.7024C82.4296 22.9145 82.0487 23.2228 81.7517 23.6037C81.1045 24.6947 80.8023 25.9538 80.8843 27.2176C80.8031 28.4911 81.1166 29.7588 81.7826 30.8499C82.0639 31.2502 82.4428 31.5731 82.8837 31.7885C83.3247 32.0038 83.8135 32.1045 84.3043 32.0811C84.7885 32.1012 85.2699 31.9987 85.7034 31.7833C86.1368 31.568 86.5082 31.2468 86.7826 30.8499ZM82.8979 29.834C82.6161 28.9954 82.4881 28.1134 82.5199 27.2299C82.4836 26.3396 82.6139 25.4503 82.9041 24.6072C83.004 24.3283 83.1884 24.0869 83.4319 23.9163C83.6754 23.7456 83.9661 23.654 84.264 23.654C84.562 23.654 84.8527 23.7456 85.0962 23.9163C85.3397 24.0869 85.524 24.3283 85.624 24.6072C85.9177 25.4496 86.0501 26.3391 86.0143 27.2299C86.0531 28.1253 85.9185 29.0198 85.6178 29.8648C85.5226 30.1434 85.3387 30.3836 85.0939 30.5491C84.8491 30.7146 84.5567 30.7964 84.2609 30.7821C83.9609 30.7927 83.6656 30.7059 83.4197 30.5348C83.1737 30.3638 82.9906 30.1178 82.8979 29.834Z" fill="white"/>
<path d="M94.9503 24.9335C94.9655 24.4237 94.8298 23.9206 94.5599 23.4868C94.3481 23.1285 94.0139 22.8577 93.6182 22.7234C93.0831 22.5942 92.5328 22.5383 91.9825 22.5572H89.1387V31.9026H92.0259C93.265 31.9026 94.1262 31.644 94.5723 31.1331C95.0081 30.6327 95.244 29.9909 95.2353 29.3292C95.2799 28.8033 95.1358 28.2787 94.8285 27.8483C94.5212 27.4178 94.0705 27.1094 93.5562 26.9775C93.9882 26.8457 94.3619 26.5712 94.6155 26.1994C94.869 25.8277 94.9871 25.3811 94.9503 24.9335ZM90.6628 23.7515H91.7966C92.2106 23.7213 92.6228 23.8297 92.9676 24.0593C93.1035 24.1882 93.2081 24.346 93.2736 24.5209C93.3391 24.6958 93.3637 24.8832 93.3456 25.069C93.3627 25.4245 93.2456 25.7736 93.0172 26.0479C92.8273 26.201 92.6078 26.3139 92.3723 26.3796C92.1368 26.4452 91.8903 26.4622 91.6479 26.4295H90.6628V23.7515ZM93.6368 29.1507C93.6368 30.1603 93.0606 30.6652 91.9144 30.6652H90.6752V27.6301H91.7966C92.0639 27.5933 92.3361 27.6163 92.5933 27.6972C92.8505 27.7782 93.0863 27.9151 93.2836 28.0979C93.5188 28.3985 93.6434 28.77 93.6368 29.1507Z" fill="white"/>
<path d="M98.3813 22.5571H96.8262V31.9087H98.3813V22.5571Z" fill="white"/>
<path d="M101.747 22.551H100.191V31.9026H105.08V30.5975H101.747V22.551Z" fill="white"/>
<path d="M107.514 22.5571H105.959V31.9087H107.514V22.5571Z" fill="white"/>
<path d="M110.886 27.7101H113.89V26.4665H110.886V23.7946H114.714V22.551H109.324V31.9026H114.776V30.6344H110.886V27.7101Z" fill="white"/>
<path d="M120.699 22.551V29.2923L117.602 22.551H115.768V31.9026H117.075V24.4164L120.544 31.9026H122V22.551H120.699Z" fill="white"/>
<path d="M62.2121 35.0178C61.4503 34.6185 60.594 34.4313 59.7338 34.476H57.6211V43.8276H59.8516C60.7275 43.8792 61.5968 43.6482 62.3298 43.1689C62.9173 42.7254 63.3663 42.1256 63.6248 41.439C63.9242 40.6528 64.0693 39.8168 64.0523 38.9764C64.062 38.1618 63.8995 37.3543 63.5752 36.6062C63.3024 35.9462 62.8249 35.3898 62.2121 35.0178ZM61.8218 41.6544C61.603 41.9676 61.3053 42.2183 60.9585 42.3814C60.6117 42.5446 60.2278 42.6144 59.8454 42.584H59.2258V35.7073H59.8454C61.5678 35.7073 62.4352 36.8524 62.4352 39.1426C62.4801 40.0213 62.267 40.894 61.8218 41.6544Z" fill="white"/>
<path d="M67.1254 34.476H65.5703V43.8276H67.1254V34.476Z" fill="white"/>
<path d="M70.4887 39.6351H73.4936V38.3853H70.4887V35.7196H74.3239V34.476H68.9336V43.8276H74.3858V42.5594H70.4887V39.6351Z" fill="white"/>
<path d="M80.3087 41.2173L77.2109 34.476H75.377V43.8276H76.6781V36.3414L80.1539 43.8276H81.6098V34.476H80.3087V41.2173Z" fill="white"/>
<path d="M88.042 39.0071C87.5753 38.7265 87.0813 38.4935 86.5674 38.3114C86.0361 38.1396 85.5315 37.8951 85.0681 37.585C84.9447 37.4863 84.8463 37.3602 84.7807 37.217C84.7151 37.0738 84.6841 36.9173 84.6901 36.76C84.69 36.4524 84.8099 36.1566 85.0247 35.9351C85.1479 35.8114 85.2961 35.7151 85.4595 35.6525C85.6229 35.5899 85.7978 35.5624 85.9727 35.5718C86.3551 35.5512 86.7306 35.6793 87.0197 35.9289C87.3182 36.2348 87.5317 36.6124 87.6393 37.0247L88.9714 36.563C88.8443 35.896 88.4763 35.2982 87.9365 34.8821C87.3968 34.466 86.7226 34.2602 86.0408 34.3036C85.6583 34.2893 85.2769 34.3517 84.9192 34.4871C84.5616 34.6225 84.235 34.8281 83.959 35.0916C83.707 35.329 83.5069 35.6156 83.3715 35.9335C83.2361 36.2513 83.1683 36.5935 83.1722 36.9386C83.1651 37.3978 83.2874 37.8499 83.5253 38.2437C83.7312 38.5987 84.023 38.8971 84.3742 39.1118C84.8994 39.3943 85.4464 39.6352 86.0098 39.8321C86.5199 39.9834 86.984 40.2585 87.3605 40.6324C87.5367 40.8507 87.6329 41.1221 87.6331 41.402C87.6375 41.58 87.6051 41.7571 87.5379 41.9223C87.4708 42.0875 87.3704 42.2372 87.2428 42.3624C87.0884 42.4989 86.9078 42.6031 86.7119 42.6687C86.516 42.7343 86.3089 42.7599 86.1028 42.7441C85.0743 42.7441 84.4423 42.1715 84.2007 41.0203L82.8066 41.4143C83.2218 43.1565 84.2936 44.0308 86.0346 44.0308C86.4621 44.0559 86.8903 43.9953 87.2938 43.8525C87.6972 43.7097 88.0675 43.4877 88.3828 43.1996C88.657 42.9363 88.873 42.6192 89.017 42.2683C89.1611 41.9175 89.2299 41.5406 89.2192 41.1619C89.2314 40.7336 89.131 40.3096 88.9278 39.9317C88.7246 39.5538 88.4257 39.2351 88.0606 39.0071H88.042Z" fill="white"/>
<path d="M89.6328 35.7935H91.7208V43.8276H93.2759V35.7935H95.3824V34.476H89.6328V35.7935Z" fill="white"/>
</g>
<defs>
<clipPath id="clip0_706_1725">
<rect width="122" height="44" fill="white"/>
</clipPath>
</defs>
</svg>
