<svg width="94" height="34" viewBox="0 0 94 34" fill="none" xmlns="http://www.w3.org/2000/svg">
<g clip-path="url(#clip0_797_9435)">
<path d="M0 34.0006H15.7534V2.94531L0 14.748V34.0006ZM2.60647 15.9944L13.1087 8.20206V31.3413H2.60647V15.9944Z" fill="#3B3B3B"/>
<path d="M18.3887 0.979992V33.9952H20.9951L21.019 0.979992L19.7015 0L18.3887 0.979992Z" fill="#3B3B3B"/>
<path d="M23.6113 34.0003H39.3647V14.7002L23.6113 2.93555V34.0003ZM26.256 8.20181L36.7582 15.9847V31.2649H26.1892L26.256 8.20181Z" fill="#3B3B3B"/>
<path d="M48.0484 14.9318C48.5 14.588 48.8456 14.1249 49.0461 13.595C49.2764 12.9874 49.3882 12.3415 49.3755 11.6921C49.383 11.0627 49.2578 10.4387 49.0079 9.8606C48.7953 9.34112 48.4181 8.90511 47.9338 8.61896C47.3469 8.31041 46.6871 8.16576 46.0243 8.20033H44.3965V15.4361H46.115C46.7974 15.4826 47.4764 15.3055 48.0484 14.9318ZM45.609 14.4799V9.1708H46.0864C47.4135 9.1708 48.0818 10.0556 48.0818 11.8301C48.1139 12.5049 47.948 13.1744 47.6044 13.7568C47.4361 13.9993 47.2069 14.1937 46.9397 14.3206C46.6726 14.4474 46.3767 14.5024 46.0816 14.4799H45.609Z" fill="#3B3B3B"/>
<path d="M54.7224 14.4611H51.7197V12.2014H54.035V11.2357H51.7197V9.17105H54.6746V8.21484H50.5215V15.4363H54.7224V14.4611Z" fill="#3B3B3B"/>
<path d="M56.5407 15.3364C56.9349 15.5005 57.3595 15.5799 57.7866 15.5695C58.3052 15.5963 58.8197 15.4652 59.2617 15.1937C59.6041 14.9723 59.8536 14.634 59.9634 14.2423C60.0785 13.7063 60.1282 13.1584 60.1114 12.6105V8.21484H59.0326V12.6771C59.0536 13.0954 59.0183 13.5146 58.9275 13.9235C58.8632 14.118 58.7355 14.2854 58.5647 14.3993C58.3501 14.5257 58.1024 14.5854 57.8534 14.5705C57.5827 14.5865 57.3142 14.5129 57.0896 14.3612C56.9019 14.2235 56.7711 14.0222 56.7221 13.7951C56.6603 13.429 56.6347 13.0577 56.6457 12.6866V8.21484H55.4713V12.6962C55.4279 13.3347 55.5207 13.9751 55.7434 14.5753C55.9108 14.9148 56.1931 15.1844 56.5407 15.3364Z" fill="#3B3B3B"/>
<path d="M62.1869 15.4363H63.3899V9.23289H65.0082V8.21484H60.5781V9.23289H62.1869V15.4363Z" fill="#3B3B3B"/>
<path d="M67.7877 14.5795C66.9952 14.5795 66.5083 14.1371 66.3221 13.2475L65.248 13.5472C65.5679 14.8982 66.3938 15.569 67.7352 15.569C68.0641 15.588 68.3936 15.5414 68.7042 15.4319C69.0149 15.3225 69.3005 15.1523 69.5444 14.9315C69.7497 14.7293 69.9114 14.4874 70.0198 14.2208C70.1281 13.9541 70.1808 13.6683 70.1746 13.3807C70.182 13.0494 70.1038 12.7218 69.9474 12.4294C69.7911 12.137 69.5619 11.8895 69.2819 11.7109C68.9209 11.4978 68.5405 11.3194 68.1457 11.1781C67.7359 11.0442 67.347 10.8537 66.9905 10.612C66.8952 10.5369 66.8192 10.4404 66.7686 10.3305C66.718 10.2205 66.6942 10.1001 66.6993 9.97924C66.6981 9.74131 66.7907 9.51243 66.9571 9.34177C67.052 9.24621 67.1662 9.17179 67.2921 9.12341C67.4179 9.07503 67.5527 9.05379 67.6874 9.0611C67.9821 9.04517 68.2714 9.14412 68.4942 9.33702C68.7242 9.57338 68.8886 9.86514 68.9716 10.1838L69.9979 9.82701C69.9002 9.31461 69.6186 8.85522 69.2056 8.53476C68.7927 8.2143 68.2767 8.05472 67.7543 8.08586C67.4616 8.07187 67.1691 8.1169 66.8943 8.21826C66.6195 8.31963 66.3681 8.47523 66.1551 8.67576C65.9592 8.85794 65.804 9.07917 65.6995 9.32505C65.5951 9.57093 65.5437 9.83597 65.5488 10.1029C65.5424 10.4594 65.6367 10.8105 65.8209 11.1162C65.9818 11.3904 66.2081 11.6208 66.4797 11.787C66.8814 12.0146 67.3013 12.2087 67.7352 12.3674C68.1122 12.4765 68.4575 12.6739 68.7424 12.943C68.8932 13.1386 68.9671 13.3824 68.9504 13.6285C68.9337 13.8746 68.8275 14.1061 68.6517 14.2798C68.5347 14.3841 68.3981 14.4644 68.2498 14.5158C68.1015 14.5672 67.9444 14.5889 67.7877 14.5795Z" fill="#3B3B3B"/>
<path d="M73.6773 9.07119C74.3679 9.07119 74.7737 9.61828 74.8946 10.7124L76.0117 10.5507C75.7826 8.90469 75.0029 8.08169 73.6726 8.08169C73.2894 8.06013 72.907 8.13668 72.5619 8.30406C72.2168 8.47144 71.9204 8.72407 71.701 9.03789C71.1911 9.87869 70.9513 10.8547 71.0136 11.8352C70.9662 12.7807 71.1915 13.72 71.6628 14.542C71.8699 14.8703 72.1618 15.137 72.5077 15.3145C72.8537 15.4919 73.2412 15.5734 73.6296 15.5506C74.9854 15.5506 75.773 14.7513 76.0165 13.1434L74.909 12.9912C74.8657 13.4029 74.7338 13.8004 74.5223 14.1567C74.4315 14.2907 74.307 14.3986 74.1612 14.4695C74.0155 14.5405 73.8535 14.5721 73.6917 14.561C72.7656 14.561 72.3025 13.6762 72.3025 11.9065C72.293 10.0163 72.7512 9.07119 73.6773 9.07119Z" fill="#3B3B3B"/>
<path d="M80.333 11.2119H78.1943V8.21484H76.9961V15.4363H78.1943V12.2204H80.333V15.4363H81.5312V8.21484H80.333V11.2119Z" fill="#3B3B3B"/>
<path d="M87.1208 14.4611H84.1229V12.2014H86.4382V11.2357H84.1229V9.17105H87.0731V8.21484H82.9199V15.4363H87.1208V14.4611Z" fill="#3B3B3B"/>
<path d="M91.38 15.4376H92.6833L91.3084 12.1741C91.665 12.006 91.9622 11.7342 92.1607 11.3946C92.3593 11.0549 92.4499 10.6632 92.4207 10.2712C92.4385 9.9902 92.3977 9.70855 92.3007 9.44406C92.2038 9.17958 92.0528 8.93801 91.8574 8.73463C91.3651 8.34037 90.7396 8.14964 90.1102 8.20182H87.9238V15.4376H89.1268V12.4215H90.2534L91.38 15.4376ZM89.1268 11.4986V9.11996H90.0529C90.8454 9.11996 91.2416 9.49578 91.2416 10.2522C91.2547 10.571 91.1512 10.8837 90.9504 11.1323C90.8346 11.2534 90.6929 11.347 90.536 11.4063C90.379 11.4656 90.2106 11.489 90.0434 11.4748L89.1268 11.4986Z" fill="#3B3B3B"/>
<path d="M45.6084 17.4297H44.4102V24.6559H45.6084V17.4297Z" fill="#3B3B3B"/>
<path d="M53.3905 24.652V17.4258H51.6863L50.2017 22.635L48.7552 17.4258H46.9746V24.652H47.9771V18.4819L49.667 24.652H50.5406L52.2639 18.4866V24.652H53.3905Z" fill="#3B3B3B"/>
<path d="M60.0452 18.4866V24.652H61.1718V17.4258H59.4628L57.9781 22.635L56.5365 17.4258H54.7559V24.652H55.7584V18.4819L57.4483 24.652H58.3219L60.0452 18.4866Z" fill="#3B3B3B"/>
<path d="M66.8653 23.8379C67.3639 22.9915 67.5951 22.0151 67.5289 21.0358C67.5957 20.0575 67.3626 19.082 66.8605 18.2386C66.6316 17.9442 66.3382 17.706 66.0027 17.5421C65.6672 17.3782 65.2984 17.293 64.9248 17.293C64.5511 17.293 64.1824 17.3782 63.8469 17.5421C63.5113 17.706 63.2179 17.9442 62.989 18.2386C62.4904 19.0816 62.2575 20.0545 62.3207 21.0311C62.2581 22.0152 62.4997 22.9948 63.0129 23.8379C63.2296 24.1472 63.5215 24.3968 63.8613 24.5631C64.2011 24.7295 64.5776 24.8073 64.9558 24.7893C65.3289 24.8048 65.6998 24.7256 66.0338 24.5592C66.3678 24.3928 66.6539 24.1446 66.8653 23.8379ZM63.8722 23.0529C63.6551 22.4049 63.5564 21.7233 63.581 21.0406C63.553 20.3526 63.6533 19.6655 63.8769 19.014C63.9539 18.7985 64.096 18.612 64.2836 18.4801C64.4712 18.3482 64.6952 18.2774 64.9248 18.2774C65.1544 18.2774 65.3783 18.3482 65.5659 18.4801C65.7535 18.612 65.8956 18.7985 65.9726 19.014C66.1989 19.6649 66.3009 20.3523 66.2734 21.0406C66.3033 21.7325 66.1995 22.4237 65.9678 23.0767C65.8945 23.292 65.7528 23.4776 65.5642 23.6055C65.3755 23.7334 65.1503 23.7966 64.9224 23.7855C64.6912 23.7937 64.4637 23.7266 64.2742 23.5944C64.0847 23.4622 63.9436 23.2721 63.8722 23.0529Z" fill="#3B3B3B"/>
<path d="M73.1575 19.2668C73.1692 18.8728 73.0647 18.4841 72.8567 18.1488C72.6935 17.872 72.436 17.6627 72.1311 17.5589C71.7189 17.4591 71.2948 17.4159 70.8708 17.4305H68.6797V24.652H70.9043C71.859 24.652 72.5226 24.4522 72.8663 24.0573C73.202 23.6707 73.3838 23.1747 73.3771 22.6635C73.4115 22.2571 73.3004 21.8517 73.0637 21.5191C72.8269 21.1865 72.4796 20.9481 72.0834 20.8462C72.4162 20.7443 72.7042 20.5322 72.8995 20.245C73.0949 19.9577 73.1859 19.6126 73.1575 19.2668ZM69.854 18.3534H70.7276C71.0466 18.3301 71.3642 18.4138 71.6299 18.5913C71.7346 18.6908 71.8152 18.8128 71.8656 18.9479C71.9161 19.0831 71.935 19.2279 71.9211 19.3714C71.9343 19.6462 71.844 19.9159 71.6681 20.1278C71.5217 20.2462 71.3526 20.3334 71.1712 20.3842C70.9898 20.4349 70.7998 20.448 70.6131 20.4228H69.854V18.3534ZM72.1454 22.5255C72.1454 23.3057 71.7015 23.6958 70.8183 23.6958H69.8636V21.3505H70.7276C70.9336 21.3221 71.1432 21.3398 71.3414 21.4024C71.5396 21.4649 71.7213 21.5707 71.8733 21.712C72.0545 21.9443 72.1505 22.2313 72.1454 22.5255Z" fill="#3B3B3B"/>
<path d="M75.8017 17.4297H74.6035V24.6559H75.8017V17.4297Z" fill="#3B3B3B"/>
<path d="M78.3955 17.4258H77.1973V24.652H80.9638V23.6435H78.3955V17.4258Z" fill="#3B3B3B"/>
<path d="M82.8388 17.4297H81.6406V24.6559H82.8388V17.4297Z" fill="#3B3B3B"/>
<path d="M85.4354 21.4123H87.7507V20.4514H85.4354V18.3867H88.3856V17.4258H84.2324V24.652H88.4333V23.672H85.4354V21.4123Z" fill="#3B3B3B"/>
<path d="M92.9972 17.4258V22.635L90.6103 17.4258H89.1973V24.652H90.2045V18.8672L92.8778 24.652H93.9997V17.4258H92.9972Z" fill="#3B3B3B"/>
<path d="M47.9338 27.0604C47.3469 26.7518 46.6871 26.6072 46.0243 26.6417H44.3965V33.868H46.115C46.79 33.9078 47.4597 33.7293 48.0245 33.359C48.4772 33.0163 48.8231 32.5528 49.0223 32.0222C49.253 31.4147 49.3648 30.7687 49.3516 30.1193C49.3591 29.4899 49.2339 28.8659 48.9841 28.2877C48.7738 27.7777 48.406 27.3478 47.9338 27.0604ZM47.6331 32.1887C47.4645 32.4307 47.2351 32.6244 46.9679 32.7505C46.7007 32.8765 46.405 32.9305 46.1103 32.907H45.6329V27.5932H46.1103C47.4374 27.5932 48.1057 28.478 48.1057 30.2477C48.1403 30.9267 47.9761 31.601 47.6331 32.1887Z" fill="#3B3B3B"/>
<path d="M51.7197 26.6406H50.5215V33.8669H51.7197V26.6406Z" fill="#3B3B3B"/>
<path d="M54.3115 30.6272H56.6268V29.6615H54.3115V27.6016H57.2664V26.6406H53.1133V33.8669H57.3142V32.8869H54.3115V30.6272Z" fill="#3B3B3B"/>
<path d="M61.878 31.8498L59.4912 26.6406H58.0781V33.8669H59.0806V28.0821L61.7587 33.8669H62.8805V26.6406H61.878V31.8498Z" fill="#3B3B3B"/>
<path d="M67.8346 30.1428C67.475 29.926 67.0943 29.7459 66.6985 29.6053C66.2891 29.4725 65.9003 29.2836 65.5432 29.0439C65.4482 28.9676 65.3723 28.8703 65.3218 28.7596C65.2712 28.6489 65.2473 28.528 65.252 28.4064C65.2519 28.1687 65.3443 27.9402 65.5098 27.769C65.6047 27.6734 65.7189 27.599 65.8448 27.5506C65.9707 27.5022 66.1054 27.481 66.2402 27.4883C66.5348 27.4724 66.8242 27.5713 67.0469 27.7642C67.2769 28.0006 67.4414 28.2923 67.5243 28.611L68.5507 28.2542C68.4528 27.7388 68.1692 27.2769 67.7533 26.9553C67.3375 26.6338 66.818 26.4748 66.2927 26.5083C65.998 26.4973 65.7041 26.5455 65.4285 26.6501C65.1529 26.7547 64.9013 26.9136 64.6887 27.1172C64.4945 27.3007 64.3404 27.5221 64.236 27.7677C64.1317 28.0133 64.0794 28.2777 64.0824 28.5444C64.077 28.8993 64.1712 29.2486 64.3545 29.5529C64.5131 29.8273 64.7379 30.0578 65.0085 30.2237C65.4133 30.4421 65.8347 30.6282 66.2688 30.7803C66.6618 30.8973 67.0194 31.1098 67.3095 31.3987C67.4453 31.5674 67.5194 31.7772 67.5195 31.9934C67.5229 32.131 67.4979 32.2678 67.4462 32.3955C67.3945 32.5231 67.3171 32.6388 67.2188 32.7355C67.0998 32.841 66.9607 32.9216 66.8098 32.9722C66.6589 33.0229 66.4992 33.0427 66.3404 33.0305C65.548 33.0305 65.0611 32.5881 64.8749 31.6985L63.8008 32.0029C64.1206 33.3492 64.9465 34.0247 66.2879 34.0247C66.6173 34.0442 66.9472 33.9973 67.2581 33.887C67.5689 33.7766 67.8543 33.6051 68.0972 33.3825C68.3085 33.1791 68.4749 32.934 68.5858 32.6628C68.6968 32.3917 68.7499 32.1006 68.7416 31.8079C68.751 31.4769 68.6736 31.1493 68.5171 30.8573C68.3605 30.5653 68.1302 30.319 67.8489 30.1428H67.8346Z" fill="#3B3B3B"/>
<path d="M69.0625 27.6587H70.6713V33.8669H71.8695V27.6587H73.4925V26.6406H69.0625V27.6587Z" fill="#3B3B3B"/>
</g>
<defs>
<clipPath id="clip0_797_9435">
<rect width="94" height="34" fill="white"/>
</clipPath>
</defs>
</svg>
